<?xml version="1.0" encoding="UTF-8" standalone="no"?><!DOCTYPE svg PUBLIC "-//W3C//DTD SVG 1.1//EN" "http://www.w3.org/Graphics/SVG/1.1/DTD/svg11.dtd"><svg width="100%" height="100%" viewBox="0 0 720 1334" version="1.1" xmlns="http://www.w3.org/2000/svg" xmlns:xlink="http://www.w3.org/1999/xlink" xml:space="preserve" xmlns:serif="http://www.serif.com/" style="fill-rule:evenodd;clip-rule:evenodd;stroke-linejoin:round;stroke-miterlimit:2;"><style></style><rect id="bg" x="0" y="0" width="719.9" height="1334" style="fill:url(#_Radial1);"/><g id="logo"><path d="M460.9,577.4l-0.1,5.3l-2.3,0l0.1,-5l0,-0.5c0,-0.2 -0.1,-0.3 -0.1,-0.5c-0.1,-0.2 -0.2,-0.3 -0.4,-0.4c-0.3,-0.1 -0.6,-0.1 -0.9,-0.1l-1.8,0l-0.1,6.5l-2.2,0l0.1,-8.4l4.2,0.1c0.7,0 1.3,0.1 1.9,0.3c0.5,0.2 0.9,0.5 1.2,1c0.3,0.6 0.4,1.2 0.4,1.9" style="fill:#a1babc;fill-rule:nonzero;"/><path d="M452.9,596.9l0,1.7l-2,0c-0.7,0 -1.4,-0.2 -1.9,-0.7c-0.4,-0.5 -0.7,-1.2 -0.6,-1.9l0.1,-4.1l-1.5,0l0,-1.7l1.5,0l0,-3.1l2.2,0l0,3.1l2.4,0l0,1.7l-2.4,0l-0.1,3.4c0,0.4 0,0.8 0.2,1.1c0.2,0.2 0.4,0.4 0.7,0.5c0.4,0.1 0.8,0.1 1.2,0.1l0.2,-0.1Z" style="fill:#a1babc;fill-rule:nonzero;"/><path d="M449.1,580.8l0.1,-4.9l-1.2,0c-0.5,0 -0.9,0 -1.4,0.1c-0.3,0.1 -0.6,0.2 -0.9,0.5c-0.2,0.2 -0.3,0.4 -0.4,0.7c-0.1,0.2 -0.1,0.5 -0.1,0.7l0,0.5c-0.1,0.8 0.2,1.5 0.8,2c0.2,0.2 0.4,0.3 0.7,0.3c0.3,0.1 0.6,0.1 0.9,0.1l1.5,0Zm2.3,-6.6l-0.1,8.1c0,0.6 -0.1,1.2 -0.4,1.8c-0.2,0.5 -0.6,0.9 -1,1.1c-0.6,0.3 -1.2,0.4 -1.8,0.3l-4.4,-0.1l0,-1.7l4,0.1l0.2,0c0.6,0 1.2,-0.5 1.2,-1.2l0,-0.1l-2.1,0c-0.4,0 -0.7,0 -1.1,-0.1c-0.3,-0.1 -0.6,-0.1 -0.9,-0.3c-0.9,-0.4 -1.5,-1.2 -1.8,-2.1c-0.2,-0.6 -0.3,-1.2 -0.3,-1.8c-0.1,-1 0.2,-2 0.9,-2.8c0.4,-0.4 0.9,-0.7 1.4,-1c0.3,-0.1 0.7,-0.2 1,-0.3c0.3,0 0.5,-0.1 0.8,-0.1l0.4,0l4,0.1l0,0.1Z" style="fill:#a1babc;fill-rule:nonzero;"/><path d="M443.4,598.5l0.1,-8.4l2.3,0l-0.1,8.4l-2.3,0Z" style="fill:#a1babc;fill-rule:nonzero;"/><rect x="443.5" y="587" width="2.3" height="2.1" style="fill:#a1babc;"/><path d="M441.5,593.1l-0.1,5.3l-2.2,0l0.1,-5l0,-0.5c0,-0.2 -0.1,-0.3 -0.1,-0.5c-0.1,-0.2 -0.2,-0.3 -0.4,-0.4c-0.3,-0.1 -0.6,-0.2 -0.9,-0.1l-1.8,0l-0.1,6.5l-2.2,0l0.1,-8.4l4.2,0.1c0.7,0 1.3,0.1 1.9,0.3c0.5,0.2 0.9,0.5 1.2,1c0.3,0.6 0.4,1.2 0.4,1.9" style="fill:#a1babc;fill-rule:nonzero;"/><path d="M439.2,582.4l0.1,-8.4l2.3,0l-0.1,8.4l-2.3,0Z" style="fill:#a1babc;fill-rule:nonzero;"/><rect x="439.3" y="570.9" width="2.3" height="2.1" style="fill:#a1babc;"/><path d="M437.6,579.6c0,0.4 -0.1,0.8 -0.2,1.2c-0.1,0.3 -0.2,0.5 -0.4,0.7c-0.2,0.2 -0.4,0.4 -0.6,0.5c-0.3,0.2 -0.7,0.3 -1.1,0.3l-5.7,-0.1l0,-1.7l4.7,0.1c0.8,0 1.2,-0.3 1.2,-0.8c0,-0.5 -0.4,-0.8 -1.2,-0.8l-2.6,0l-0.7,-0.1c-0.3,0 -0.6,-0.2 -0.8,-0.3c-0.3,-0.2 -0.4,-0.4 -0.5,-0.7c-0.1,-0.4 -0.2,-0.8 -0.2,-1.2c0,-1.8 1,-2.7 3,-2.6l4.7,0.1l0,1.7l-3.9,-0.1l-0.4,0c-0.7,0 -1,0.2 -1.1,0.5l0,0.3c0,0.5 0.3,0.7 1,0.7l2,0c0.4,0 0.7,0 1.1,0.2c0.3,0.1 0.6,0.2 0.9,0.5c0.3,0.2 0.5,0.5 0.6,0.8c0.1,0.1 0.2,0.4 0.2,0.8" style="fill:#a1babc;fill-rule:nonzero;"/><path d="M429.5,598.2l0.1,-8.4l2.3,0l-0.1,8.4l-2.3,0Z" style="fill:#a1babc;fill-rule:nonzero;"/><rect x="429.7" y="586.8" width="2.3" height="2.1" style="fill:#a1babc;"/><path d="M428.6,589.8l0,1.7l-2.1,0l-0.1,6.7l-2.4,0l0.1,-6.7l-1.6,0l0,-1.7l1.6,0l0,-1c0,-0.2 0,-0.4 0.1,-0.7c0,-0.3 0.1,-0.5 0.3,-0.7c0.2,-0.2 0.4,-0.4 0.7,-0.5c0.4,-0.1 0.8,-0.2 1.3,-0.2l2.1,0l0,1.7l-0.9,0c-0.3,0 -0.6,0 -0.9,0.2c-0.2,0.1 -0.3,0.3 -0.3,0.7l0,0.5l2.1,0Z" style="fill:#a1babc;fill-rule:nonzero;"/><path d="M428.3,580.5l0,1.7l-3.2,0c-1.2,0.1 -2.3,-0.4 -3.2,-1.2c-0.7,-0.9 -1.1,-2 -1,-3.1c-0.1,-1 0.2,-2 0.9,-2.8c0.4,-0.5 1,-0.9 1.6,-1.1c0.6,-0.2 1.2,-0.2 1.8,-0.2l3.2,0l0,1.7l-2.9,0c-0.4,0 -0.8,0 -1.1,0.1c-0.3,0.1 -0.5,0.2 -0.7,0.5c-0.2,0.3 -0.3,0.6 -0.3,1l5,0.1l0,1.8l-5,-0.1c0,0.3 0.1,0.7 0.2,1c0.2,0.2 0.4,0.4 0.7,0.5c0.4,0.1 0.8,0.1 1.2,0.1l2.8,0Z" style="fill:#a1babc;fill-rule:nonzero;"/><path d="M421.5,592.8l-0.1,5.3l-2.3,0l0.1,-5l0,-0.5c0,-0.2 -0.1,-0.3 -0.1,-0.5c-0.1,-0.2 -0.2,-0.3 -0.4,-0.4c-0.3,-0.1 -0.6,-0.2 -0.9,-0.1l-1.8,0l-0.1,6.5l-2.2,0l0.1,-8.4l4.2,0.1c0.7,0 1.3,0.1 1.9,0.3c0.5,0.2 0.9,0.5 1.2,1c0.3,0.6 0.4,1.2 0.4,1.9" style="fill:#a1babc;fill-rule:nonzero;"/><path d="M417.3,576.3c0,-0.6 0,-1.2 -0.1,-1.8c-0.1,-0.5 -0.2,-0.9 -0.5,-1.3c-0.2,-0.3 -0.5,-0.5 -0.8,-0.6c-0.2,-0.1 -0.5,-0.1 -0.7,-0.1l-0.7,0l-2.8,0l-0.1,7.5l2.8,0c0.4,0 0.8,0 1.2,-0.1c0.3,-0.1 0.6,-0.2 0.9,-0.5c0.3,-0.4 0.6,-0.8 0.6,-1.3c0.2,-0.5 0.2,-1.1 0.2,-1.8m2.7,-0.4l0,0.7c0,2 -0.5,3.3 -1.3,4c-0.6,0.5 -1.3,1 -2.1,1.2c-0.7,0.1 -1.3,0.2 -2,0.2l-5.3,-0.1l0.2,-11.5l5.2,0.1c1,0 2,0.2 2.9,0.6c0.7,0.3 1.2,0.8 1.6,1.5c0.3,0.5 0.5,1.1 0.6,1.7c0.1,0.5 0.2,1.1 0.2,1.6" style="fill:#a1babc;fill-rule:nonzero;"/><path d="M409,597.9l0.2,-11.5l2.5,0l-0.2,11.5l-2.5,0Z" style="fill:#a1babc;fill-rule:nonzero;"/><path d="M403.2,588.7c0,0.7 -0.1,1.3 -0.2,2c-0.2,0.7 -0.4,1.4 -0.7,2.1c-0.4,0.9 -1,1.6 -1.7,2.1c-0.9,0.6 -1.8,1 -2.9,1.3c-1.3,0.3 -2.6,0.4 -3.9,0.3l-14.9,-0.2l0.1,-4.8l14,0.2c1.1,0.1 2.2,-0.1 3.2,-0.6c0.8,-0.5 1.3,-1.4 1.2,-2.3l0,-0.6c0,-0.6 -0.2,-1.2 -0.6,-1.7c-0.4,-0.4 -0.9,-0.6 -1.4,-0.8c-0.6,-0.1 -1.3,-0.2 -1.9,-0.2l-6.6,-0.1c-2.3,0.1 -4.6,-0.6 -6.6,-1.9c-1.5,-1.2 -2.3,-3.2 -2.2,-6c0,-1.3 0.3,-2.6 0.8,-3.8c0.4,-1 1.1,-1.9 2,-2.5c0.9,-0.6 1.8,-1 2.8,-1.2c1.3,-0.3 2.6,-0.4 3.9,-0.3l14.7,0.2l-0.1,4.8l-13.8,-0.2c-2.9,0 -4.4,1.1 -4.4,3.4c-0.1,0.8 0.3,1.7 1,2.2c0.7,0.5 1.6,0.8 2.5,0.8l7.4,0.1c1.3,0 2.6,0.1 3.8,0.4c1.2,0.3 2.3,1 3.1,1.8c0.9,1 1.5,2.9 1.4,5.5" style="fill:#fff;fill-rule:nonzero;"/><path d="M374.3,591.6l-0.1,4.6l-9.4,-0.1c-1.5,0 -3.1,-0.2 -4.5,-0.5c-3.3,-0.9 -5.9,-3.4 -6.9,-6.6c-0.6,-1.9 -0.9,-3.9 -0.9,-5.9l0.1,-1.6c0,-0.9 0.1,-1.9 0.3,-2.8c0.2,-0.9 0.5,-1.7 0.8,-2.6c0.3,-0.7 0.6,-1.5 1.1,-2.1c0.5,-0.7 1.1,-1.4 1.8,-2c0.8,-0.8 1.8,-1.3 2.8,-1.7c1,-0.3 2,-0.5 3.1,-0.7c1,-0.1 1.9,-0.2 2.9,-0.2l9.3,0.1l-0.1,4.6l-9.2,-0.1c-1.7,-0.1 -3.4,0.4 -4.7,1.5c-1.2,1.2 -1.8,2.9 -1.7,4.6l15.5,0.2l-0.1,4.6l-15.5,-0.2c0,2.2 0.4,3.8 1.1,4.7c0.6,0.8 1.4,1.3 2.3,1.6c0.9,0.2 1.9,0.3 2.8,0.3l9.2,0.3Z" style="fill:#fff;fill-rule:nonzero;"/><path d="M353.3,569.2l-10.4,14.8l-0.2,11.7l-5.7,-0.1l0.2,-11.7l-9.8,-15.1l6.2,0.1l6.4,10.3l6.8,-10.1l6.5,0.1Z" style="fill:#fff;fill-rule:nonzero;"/><path d="M315.9,563.2c2.1,1.9 3,4.8 2.4,7.6c-0.7,4.3 -2.2,22.4 -16,31.1c-12.3,7.7 -26.7,5.1 -32.5,-0.2c6.3,2.5 14.6,2.9 21.9,-3c8.6,-7.1 10.6,-19 14.1,-26.6c1.2,-2.7 2.5,-6.5 4.5,-6c2,0.5 -3.8,-2 -5.7,-2.3c-1.9,-0.3 -7,-0.3 -8.8,2.3c-1.8,2.6 -5.1,10.8 -5.4,11.7c-0.3,0.9 -0.9,1.8 -1.8,1.8l-7,-0.1c-1.2,0 -1.1,-1.5 -0.8,-2.5c0.3,-1 2.1,-11.7 6,-13c5.3,-1.8 -1.4,-1.8 -1.9,-1.8c-4.3,-0.2 -8.3,2.1 -10.3,6c-1.5,3.1 -2.8,6.2 -3.9,9.4c-1,2.6 -0.8,8.7 4.4,8.8l11.8,0.2c0,0 -0.4,11.8 -12.2,11.6c-3.8,-0.2 -7.5,-1.8 -10.2,-4.6c-2.4,-2.3 -15.1,-21.8 8,-33.6c23.1,-11.8 42.5,2.4 43.4,3.2" style="fill:#a1babc;fill-rule:nonzero;"/></g><g id="crossplatform"><text x="287.9px" y="625.523px" style="font-family:'AvantiBNormal', 'AvantiB', sans-serif;font-size:12px;fill:#fff;fill-opacity:0.6;">cross platform application</text><g transform="matrix(1,0,0,1,93.1634,-197.908)"><text x="218.172px" y="838.917px" style="font-family:'AvantiBNormal', 'AvantiB', sans-serif;font-size:12px;fill:#fff;fill-opacity:0.6;">written with</text><text x="284.303px" y="838.917px" style="font-family:'AvantiBNormal', 'AvantiB', sans-serif;font-size:12px;fill:#f2b900;fill-opacity:0.6;">flutter</text></g></g><defs><radialGradient id="_Radial1" cx="0" cy="0" r="1" gradientUnits="userSpaceOnUse" gradientTransform="matrix(734.98,633.98,633.98,-734.98,362.735,669.398)"><stop offset="0" style="stop-color:#215b5f;stop-opacity:1"/><stop offset="1" style="stop-color:#003740;stop-opacity:1"/></radialGradient></defs></svg>