<?xml version="1.0" encoding="utf-8"?><svg version="1.1" id="Layer_1" xmlns="http://www.w3.org/2000/svg" xmlns:xlink="http://www.w3.org/1999/xlink" x="0px" y="0px"
    viewBox="0 0 719.9 1334" style="enable-background:new 0 0 719.9 1334;" xml:space="preserve"><style type="text/css">
	.st0{fill:url(#bg_1_);}
	.st1{opacity:0;fill:#FFFFFF;}
	.st2{fill:#FFC449;}
	.st3{fill:#FFFFFF;}
	.st4{fill:#A1BABC;}
	.st5{fill:#FFFFFF;fill-opacity:0.6;}
	.st6{fill:#FFD638;}
    #download{
        opacity: 0.5;
    }
    #download:hover{
        opacity: 1;
    }
</style><title>splash_screen_bg</title><radialGradient id="bg_1_" cx="-28.9891" cy="9.413407e-03" r="1" gradientTransform="matrix(734.98 633.98 633.98 -734.98 21663.1758 19054.8262)" gradientUnits="userSpaceOnUse"><stop  offset="0" style="stop-color:#215B5F"/><stop  offset="1" style="stop-color:#003740"/></radialGradient><rect id="bg" class="st0" width="719.9" height="1334"/>

    <a href="http://yesdesign.dynu.net:12345/fileServing/flutter_for_web.apk">

        <g id="download"><rect id="area" x="274" y="748" class="st1" width="170.6" height="49"/><g id="downloadText"><path class="st2" d="M321.5,762.9v7.3h-0.7v-1c-0.1,0.2-0.3,0.4-0.5,0.5c-0.1,0.1-0.3,0.2-0.5,0.3c-0.4,0.2-0.8,0.3-1.2,0.3
			c-0.9,0-1.8-0.4-2.3-1.1c-0.4-0.5-0.6-1.1-0.6-1.7c0-0.5,0.1-1,0.4-1.4c0.3-0.4,0.6-0.8,1.1-1c0.4-0.3,0.9-0.4,1.5-0.4
			c0.6,0,1.2,0.2,1.6,0.5c0.2,0.1,0.3,0.3,0.5,0.5v-2.9L321.5,762.9L321.5,762.9z M320.8,767.5c0-0.4-0.1-0.8-0.3-1.1
			c-0.2-0.3-0.5-0.6-0.8-0.8c-0.3-0.2-0.7-0.3-1.1-0.3c-0.4,0-0.8,0.1-1.1,0.3c-0.3,0.2-0.6,0.5-0.8,0.8c-0.2,0.3-0.3,0.7-0.3,1.1
			c0,0.4,0.1,0.8,0.3,1.1c0.2,0.3,0.5,0.6,0.8,0.8c0.7,0.4,1.5,0.4,2.1,0c0.3-0.2,0.6-0.5,0.8-0.8
			C320.7,768.3,320.8,767.9,320.8,767.5L320.8,767.5z"/><path class="st2" d="M325.4,764.7c0.5,0,1,0.1,1.4,0.4c0.4,0.2,0.8,0.6,1,1c0.3,0.4,0.4,0.9,0.4,1.4c0,0.5-0.1,1-0.4,1.4
			c-0.2,0.4-0.6,0.8-1,1c-0.4,0.3-0.9,0.4-1.4,0.4c-0.5,0-1,0-1.4-0.3c-0.4-0.2-0.8-0.6-1-1c-0.3-0.4-0.4-0.9-0.4-1.4
			c0-0.5,0.1-1,0.4-1.4c0.2-0.4,0.6-0.8,1-1C324.4,764.9,324.9,764.7,325.4,764.7L325.4,764.7z M325.4,765.4c-0.4,0-0.8,0.1-1.1,0.3
			c-0.3,0.2-0.6,0.5-0.8,0.8c-0.2,0.3-0.3,0.7-0.3,1.1c0,1.2,0.9,2.1,2.1,2.1c0,0,0,0,0,0c0.4,0,0.7-0.1,1-0.3
			c0.3-0.2,0.6-0.5,0.8-0.8c0.2-0.3,0.3-0.7,0.3-1.1c0-0.4-0.1-0.7-0.3-1c-0.2-0.3-0.4-0.6-0.8-0.8
			C326.1,765.5,325.8,765.4,325.4,765.4L325.4,765.4L325.4,765.4z"/><path class="st2" d="M330.8,770.2l-2-5.4h0.8l1.7,4.5l1.3-3.9h0.6l1.2,3.9l1.8-4.5h0.8l-2.1,5.4H334l-1.2-3.6l-1.1,3.6H330.8z"/><path class="st2" d="M337.5,770.2v-5.4h0.7v0.8c0.1-0.2,0.2-0.3,0.4-0.5c0.4-0.3,0.9-0.5,1.4-0.5c1-0.1,1.9,0.5,2.2,1.5
			c0.1,0.4,0.2,0.8,0.1,1.2v2.9h-0.7v-2.9c0-0.2,0-0.5,0-0.7c0-0.4-0.2-0.7-0.5-0.9c-0.3-0.2-0.7-0.4-1.1-0.3
			c-0.3,0-0.6,0.1-0.8,0.2c-0.2,0.1-0.4,0.3-0.6,0.5c-0.1,0.1-0.2,0.3-0.2,0.5c0,0.3-0.1,0.5-0.1,0.8v2.9L337.5,770.2z"/><rect x="343.6" y="762.9" class="st2" width="0.7" height="7.3"/><path class="st2" d="M348.2,764.7c0.5,0,1,0.1,1.4,0.4c0.4,0.2,0.8,0.6,1,1c0.3,0.4,0.4,0.9,0.4,1.4c0,0.5-0.1,1-0.4,1.4
			c-0.2,0.4-0.6,0.8-1,1c-0.4,0.3-0.9,0.4-1.4,0.4c-0.5,0-1-0.1-1.4-0.4c-0.4-0.2-0.8-0.6-1-1c-0.3-0.4-0.4-0.9-0.4-1.4
			c0-0.5,0.1-1,0.4-1.4c0.2-0.4,0.6-0.8,1-1C347.2,764.7,347.7,764.6,348.2,764.7L348.2,764.7z M348.2,765.4c-0.4,0-0.8,0.1-1.1,0.3
			c-0.3,0.2-0.6,0.5-0.8,0.8c-0.2,0.3-0.3,0.7-0.3,1.1c0,0.8,0.4,1.5,1.1,1.8c0.3,0.2,0.7,0.3,1.1,0.3c0.4,0,0.7-0.1,1-0.3
			c0.3-0.2,0.6-0.5,0.8-0.8c0.2-0.3,0.3-0.7,0.3-1.1c0-0.4-0.1-0.7-0.3-1c-0.2-0.3-0.4-0.6-0.8-0.8
			C349,765.5,348.6,765.4,348.2,765.4L348.2,765.4L348.2,765.4z"/><path class="st2" d="M357.6,764.8v5.4h-0.7v-1c-0.1,0.2-0.3,0.4-0.5,0.6c-0.5,0.4-1,0.6-1.6,0.6c-0.5,0-0.9-0.1-1.3-0.3
			c-0.4-0.2-0.8-0.5-1.1-0.8c-0.2-0.2-0.3-0.5-0.4-0.8c-0.1-0.3-0.1-0.6-0.1-0.9c0-0.5,0.1-1,0.4-1.4c0.3-0.4,0.6-0.8,1.1-1
			c0.4-0.3,0.9-0.4,1.5-0.4c0.3,0,0.6,0,0.9,0.2c0.5,0.2,0.9,0.5,1.2,1v-1h0.7L357.6,764.8z M354.8,765.4c-0.4,0-0.8,0.1-1.1,0.3
			c-0.3,0.2-0.6,0.5-0.8,0.8c-0.2,0.3-0.3,0.7-0.3,1.1c0,0.4,0.1,0.7,0.3,1.1c0.2,0.3,0.5,0.6,0.8,0.8c0.3,0.2,0.7,0.3,1.1,0.3
			c0.4,0,0.7-0.1,1-0.3c0.3-0.2,0.6-0.5,0.8-0.8c0.2-0.3,0.3-0.7,0.3-1.1c0-0.8-0.4-1.5-1-1.9C355.6,765.5,355.2,765.4,354.8,765.4
			L354.8,765.4z"/><path class="st2" d="M364.5,762.9v7.3h-0.7v-1c-0.1,0.2-0.3,0.4-0.5,0.5c-0.1,0.1-0.3,0.2-0.5,0.3c-0.4,0.2-0.8,0.3-1.2,0.3
			c-0.9,0-1.8-0.4-2.3-1.1c-0.4-0.5-0.6-1.1-0.6-1.7c0-0.5,0.1-1,0.4-1.4c0.3-0.4,0.6-0.8,1.1-1c0.4-0.3,0.9-0.4,1.5-0.4
			c0.6,0,1.2,0.2,1.6,0.5c0.2,0.1,0.3,0.3,0.5,0.5v-2.9L364.5,762.9L364.5,762.9z M363.7,767.5c0-0.4-0.1-0.8-0.3-1.1
			c-0.2-0.3-0.5-0.6-0.8-0.8c-0.3-0.2-0.7-0.3-1.1-0.3c-0.4,0-0.7,0.1-1.1,0.3c-0.3,0.2-0.6,0.5-0.8,0.8c-0.2,0.3-0.3,0.7-0.3,1.1
			c0,0.4,0.1,0.8,0.3,1.1c0.2,0.3,0.5,0.6,0.8,0.8c0.7,0.4,1.5,0.4,2.1,0c0.3-0.2,0.6-0.5,0.8-0.8
			C363.6,768.3,363.7,767.9,363.7,767.5L363.7,767.5z"/><path class="st3" d="M374,764.8v5.4h-0.7v-1c-0.1,0.2-0.3,0.4-0.5,0.6c-0.5,0.4-1,0.6-1.6,0.6c-0.5,0-0.9-0.1-1.3-0.3
			c-0.4-0.2-0.8-0.5-1.1-0.8c-0.2-0.2-0.3-0.5-0.4-0.8c-0.1-0.3-0.1-0.6-0.1-0.9c0-0.5,0.1-1,0.4-1.4c0.3-0.4,0.6-0.8,1.1-1
			c0.4-0.3,0.9-0.4,1.5-0.4c0.3,0,0.6,0,0.9,0.2c0.3,0.1,0.5,0.2,0.8,0.4c0.2,0.2,0.3,0.4,0.4,0.6v-1h0.7V764.8z M371.2,765.4
			c-0.4,0-0.8,0.1-1.1,0.3c-0.7,0.4-1.1,1.1-1.1,1.9c0,0.4,0.1,0.7,0.3,1.1c0.2,0.3,0.5,0.6,0.8,0.8c0.3,0.2,0.7,0.3,1.1,0.3
			c0.4,0,0.7-0.1,1-0.3c0.3-0.2,0.6-0.5,0.8-0.8c0.2-0.3,0.3-0.7,0.3-1.1c0-0.8-0.4-1.5-1-1.9C372,765.5,371.6,765.4,371.2,765.4
			L371.2,765.4z"/><path class="st3" d="M375.2,770.2v-5.4h0.7v0.8c0.1-0.2,0.2-0.3,0.4-0.5c0.4-0.3,0.9-0.5,1.4-0.5c1-0.1,1.9,0.5,2.2,1.5
			c0.1,0.4,0.2,0.8,0.1,1.2v2.9h-0.7v-2.9c0-0.2,0-0.5,0-0.7c0-0.4-0.2-0.7-0.5-0.9c-0.3-0.2-0.7-0.4-1.1-0.3
			c-0.3,0-0.6,0.1-0.8,0.2c-0.2,0.1-0.4,0.3-0.6,0.5c-0.1,0.1-0.2,0.3-0.2,0.5c0,0.3-0.1,0.5-0.1,0.8v2.9L375.2,770.2L375.2,770.2z"
/><path class="st3" d="M386.9,762.9v7.3h-0.7v-1c-0.1,0.2-0.3,0.4-0.5,0.5c-0.1,0.1-0.3,0.2-0.5,0.3c-0.4,0.2-0.8,0.3-1.2,0.3
			c-0.9,0-1.8-0.4-2.3-1.1c-0.4-0.5-0.6-1.1-0.6-1.7c0-0.5,0.1-1,0.4-1.4c0.3-0.4,0.6-0.8,1.1-1c0.4-0.3,0.9-0.4,1.5-0.4
			c0.6,0,1.2,0.2,1.6,0.5c0.2,0.1,0.3,0.3,0.5,0.5v-2.9L386.9,762.9L386.9,762.9z M386.1,767.5c0-0.4-0.1-0.8-0.3-1.1
			c-0.2-0.3-0.5-0.6-0.8-0.8c-0.3-0.2-0.7-0.3-1.1-0.3c-0.8,0-1.5,0.4-1.9,1.1c-0.2,0.3-0.3,0.7-0.3,1.1c0,0.4,0.1,0.8,0.3,1.1
			c0.2,0.3,0.5,0.6,0.8,0.8c0.7,0.4,1.5,0.4,2.1,0c0.3-0.2,0.6-0.5,0.8-0.8C386,768.3,386.1,767.9,386.1,767.5L386.1,767.5z"/><path class="st3" d="M388.1,770.2v-5.4h0.7v0.8c0.1-0.2,0.2-0.3,0.3-0.4c0.1-0.1,0.3-0.2,0.5-0.3c0.3-0.1,0.5-0.2,0.8-0.2v0.7
			c-0.3,0-0.5,0.1-0.8,0.2c-0.3,0.2-0.5,0.4-0.6,0.7c-0.1,0.3-0.2,0.6-0.1,0.9v3L388.1,770.2L388.1,770.2z"/><path class="st3" d="M393.7,764.7c0.5,0,1,0.1,1.4,0.4c0.4,0.2,0.8,0.6,1,1c0.3,0.4,0.4,0.9,0.4,1.4c0,0.5-0.1,1-0.4,1.4
			c-0.2,0.4-0.6,0.8-1,1c-0.4,0.3-0.9,0.4-1.4,0.4c-0.5,0-1-0.1-1.4-0.4c-0.4-0.2-0.8-0.6-1-1c-0.3-0.4-0.4-0.9-0.4-1.4
			c0-0.5,0.1-1,0.4-1.4c0.2-0.4,0.6-0.8,1-1C392.8,764.7,393.3,764.6,393.7,764.7L393.7,764.7z M393.8,765.4c-0.4,0-0.8,0.1-1.1,0.3
			c-0.3,0.2-0.6,0.5-0.8,0.8c-0.2,0.3-0.3,0.7-0.3,1.1c0,0.8,0.4,1.5,1.1,1.8c0.3,0.2,0.7,0.3,1.1,0.3c0.4,0,0.7-0.1,1-0.3
			c0.3-0.2,0.6-0.5,0.8-0.8c0.2-0.3,0.3-0.7,0.3-1.1c0-0.4-0.1-0.7-0.3-1c-0.2-0.3-0.4-0.6-0.8-0.8
			C394.5,765.5,394.2,765.4,393.8,765.4L393.8,765.4L393.8,765.4z"/><path class="st3" d="M397.6,770.2v-5.4h0.7v5.4H397.6z M397.6,764.1v-1.3h0.7v1.3H397.6z"/><path class="st3" d="M405.2,762.9v7.3h-0.7v-1c-0.1,0.2-0.3,0.4-0.5,0.5c-0.1,0.1-0.3,0.2-0.5,0.3c-0.4,0.2-0.8,0.3-1.2,0.3
			c-0.9,0-1.8-0.4-2.3-1.1c-0.4-0.5-0.6-1.1-0.6-1.7c0-0.5,0.1-1,0.4-1.4c0.3-0.4,0.6-0.8,1.1-1c0.4-0.3,0.9-0.4,1.5-0.4
			c0.6,0,1.2,0.2,1.6,0.5c0.2,0.1,0.3,0.3,0.5,0.5v-2.9L405.2,762.9L405.2,762.9z M404.5,767.5c0-0.4-0.1-0.8-0.3-1.1
			c-0.2-0.3-0.5-0.6-0.8-0.8c-0.3-0.2-0.7-0.3-1.1-0.3c-0.8,0-1.5,0.4-1.9,1.1c-0.2,0.3-0.3,0.7-0.3,1.1c0,0.4,0.1,0.8,0.3,1.1
			c0.2,0.3,0.5,0.6,0.8,0.8c0.7,0.4,1.5,0.4,2.1,0c0.3-0.2,0.6-0.5,0.8-0.8C404.3,768.3,404.4,767.9,404.5,767.5L404.5,767.5z"/><path class="st3" d="M414.7,764.8v5.4H414v-1c-0.1,0.2-0.3,0.4-0.5,0.6c-0.5,0.4-1,0.6-1.6,0.6c-0.5,0-0.9-0.1-1.3-0.3
			c-0.4-0.2-0.8-0.5-1.1-0.8c-0.2-0.2-0.3-0.5-0.4-0.8c-0.1-0.3-0.1-0.6-0.1-0.9c0-0.5,0.1-1,0.4-1.4c0.3-0.4,0.6-0.8,1.1-1
			c0.4-0.3,0.9-0.4,1.5-0.4c0.3,0,0.6,0,0.9,0.2c0.5,0.2,0.9,0.5,1.2,1v-1h0.7L414.7,764.8z M411.9,765.4c-0.4,0-0.8,0.1-1.1,0.3
			c-0.3,0.2-0.6,0.5-0.8,0.8c-0.2,0.3-0.3,0.7-0.3,1.1c0,0.4,0.1,0.7,0.3,1.1c0.2,0.3,0.5,0.6,0.8,0.8c0.3,0.2,0.7,0.3,1.1,0.3
			c0.4,0,0.7-0.1,1-0.3c0.3-0.2,0.6-0.5,0.8-0.8c0.2-0.3,0.3-0.7,0.3-1.1c0-0.8-0.4-1.5-1-1.9C412.7,765.5,412.4,765.4,411.9,765.4
			L411.9,765.4z"/><path class="st3" d="M416,764.8h0.7v0.9c0.1-0.2,0.3-0.3,0.4-0.5c0.5-0.4,1.1-0.6,1.8-0.6c0.4,0,0.8,0.1,1.2,0.3
			c0.4,0.2,0.7,0.5,1,0.8c0.4,0.5,0.7,1.1,0.6,1.8c0,0.5-0.1,1-0.4,1.4c-0.3,0.4-0.6,0.8-1.1,1c-0.4,0.3-0.9,0.4-1.5,0.4
			c-0.6,0-1.2-0.2-1.7-0.6c-0.2-0.1-0.3-0.3-0.4-0.5v2.9H416V764.8L416,764.8z M418.8,769.7c0.3,0,0.6-0.1,0.9-0.2
			c0.3-0.1,0.5-0.3,0.7-0.5c0.2-0.2,0.3-0.4,0.5-0.7c0.5-1.1-0.1-2.4-1.1-2.8c-0.3-0.1-0.6-0.2-0.9-0.2c-0.4,0-0.8,0.1-1.1,0.3
			c-0.3,0.2-0.6,0.4-0.8,0.8c-0.2,0.3-0.3,0.7-0.3,1.1c0,0.7,0.4,1.5,1,1.8C418,769.5,418.3,769.6,418.8,769.7L418.8,769.7
			L418.8,769.7z"/><path class="st3" d="M422.8,764.8h0.7v0.9c0.1-0.2,0.3-0.3,0.4-0.5c0.5-0.4,1.1-0.6,1.8-0.6c0.4,0,0.8,0.1,1.2,0.3
			c0.4,0.2,0.7,0.5,1,0.8c0.4,0.5,0.7,1.1,0.6,1.8c0,0.5-0.1,1-0.4,1.4c-0.3,0.4-0.6,0.8-1.1,1c-0.4,0.3-0.9,0.4-1.5,0.4
			c-0.6,0-1.2-0.2-1.7-0.6c-0.2-0.1-0.3-0.3-0.4-0.5v2.9h-0.7L422.8,764.8L422.8,764.8z M425.6,769.7c0.3,0,0.6-0.1,0.9-0.2
			c0.3-0.1,0.5-0.3,0.7-0.5c0.2-0.2,0.3-0.4,0.5-0.7c0.5-1.1-0.1-2.4-1.1-2.8c-0.3-0.1-0.6-0.2-0.9-0.2c-0.4,0-0.8,0.1-1.1,0.3
			c-0.3,0.2-0.6,0.4-0.8,0.8c-0.2,0.3-0.3,0.7-0.3,1.1c0,0.7,0.4,1.5,1,1.8C424.7,769.5,425.1,769.6,425.6,769.7L425.6,769.7
			L425.6,769.7z"/><path class="st3" d="M316.3,782.2v-4.8h-0.9v-0.7h0.9c0-0.3,0-0.6,0.1-0.8c0.1-0.2,0.2-0.4,0.4-0.6c0.2-0.2,0.4-0.3,0.6-0.4
			c0.3-0.1,0.5-0.1,0.8-0.1h0.1v0.7h-0.1c-0.8,0-1.2,0.4-1.2,1.1v0.1h1.4v0.7h-1.4v4.8L316.3,782.2L316.3,782.2z"/><path class="st3" d="M321.7,776.6c0.5,0,1,0.1,1.4,0.4c0.4,0.2,0.8,0.6,1,1c0.3,0.4,0.4,0.9,0.4,1.4c0,0.5-0.1,1-0.4,1.4
			c-0.2,0.4-0.6,0.8-1,1c-0.4,0.3-0.9,0.4-1.4,0.4c-0.5,0-1-0.1-1.4-0.4c-0.4-0.2-0.8-0.6-1-1c-0.3-0.4-0.4-0.9-0.4-1.4
			c0-0.5,0.1-1,0.4-1.4c0.2-0.4,0.6-0.8,1-1C320.7,776.7,321.2,776.5,321.7,776.6L321.7,776.6z M321.7,777.3c-0.4,0-0.8,0.1-1.1,0.3
			c-0.3,0.2-0.6,0.5-0.8,0.8c-0.2,0.3-0.3,0.7-0.3,1.1c0,0.8,0.4,1.5,1.1,1.8c0.3,0.2,0.7,0.3,1.1,0.3c0.4,0,0.7-0.1,1-0.3
			c0.3-0.2,0.6-0.5,0.8-0.8c0.2-0.3,0.3-0.7,0.3-1.1c0-0.4-0.1-0.7-0.3-1c-0.2-0.3-0.4-0.6-0.8-0.8
			C322.5,777.4,322.1,777.3,321.7,777.3L321.7,777.3L321.7,777.3z"/><path class="st3" d="M325.6,782.2v-5.4h0.7v0.8c0.1-0.2,0.2-0.3,0.3-0.4c0.1-0.1,0.3-0.2,0.5-0.3c0.3-0.1,0.5-0.2,0.8-0.2v0.7
			c-0.3,0-0.5,0.1-0.8,0.2c-0.3,0.2-0.5,0.4-0.6,0.7c-0.1,0.3-0.2,0.6-0.1,0.9v3L325.6,782.2L325.6,782.2z"/><path class="st3" d="M331.3,782.2v-7.4h0.7v2.9c0.1-0.2,0.2-0.4,0.4-0.5c0.5-0.4,1.1-0.6,1.7-0.6c0.4,0,0.8,0.1,1.1,0.2
			c0.3,0.1,0.7,0.3,0.9,0.6c0.3,0.3,0.5,0.6,0.6,0.9c0.2,0.3,0.2,0.7,0.2,1.1c0,1-0.5,2-1.4,2.5c-0.4,0.3-0.9,0.4-1.4,0.4
			c-0.3,0-0.7-0.1-1-0.2c-0.3-0.1-0.5-0.3-0.8-0.4c-0.2-0.1-0.3-0.3-0.4-0.5v0.9L331.3,782.2L331.3,782.2z M334.2,777.3
			c-0.4,0-0.8,0.1-1.1,0.3c-0.3,0.2-0.6,0.4-0.8,0.8c-0.2,0.3-0.3,0.7-0.3,1.1c0,0.4,0.1,0.8,0.3,1.1c0.2,0.3,0.5,0.6,0.8,0.8
			c0.3,0.2,0.7,0.3,1.1,0.3c0.4,0,0.8-0.1,1.1-0.3c0.3-0.2,0.6-0.5,0.8-0.8c0.2-0.3,0.3-0.7,0.3-1.1c0-0.4-0.1-0.7-0.3-1.1
			C335.7,777.7,335,777.3,334.2,777.3L334.2,777.3z"/><path class="st3" d="M343.5,779.7h-4.9c0,0.2,0.1,0.5,0.2,0.7c0.1,0.2,0.3,0.5,0.5,0.6c0.4,0.4,0.9,0.6,1.5,0.6
			c0.8,0,1.6-0.4,1.9-1.2h0.8c-0.1,0.2-0.2,0.5-0.4,0.7c-0.1,0.2-0.3,0.3-0.5,0.5c-0.3,0.2-0.6,0.4-0.9,0.5c-0.3,0.1-0.7,0.2-1,0.2
			c-1.6,0-2.8-1.3-2.8-2.8c0,0,0,0,0,0c0-1,0.5-1.9,1.4-2.5c0.4-0.3,0.9-0.4,1.4-0.4c0.4,0,0.8,0.1,1.2,0.3c0.4,0.2,0.7,0.4,1,0.8
			c0.3,0.3,0.4,0.7,0.5,1.1C343.5,779,343.5,779.3,343.5,779.7z M338.6,779h4.1c-0.1-0.3-0.2-0.6-0.4-0.8c-0.2-0.3-0.4-0.5-0.7-0.6
			c-0.3-0.1-0.6-0.2-0.9-0.2c-0.3,0-0.6,0.1-0.9,0.2c-0.3,0.1-0.5,0.3-0.7,0.6C338.9,778.4,338.7,778.7,338.6,779L338.6,779z"/><path class="st3" d="M345.2,782.2v-4.8h-1.1v-0.7h1.1v-1.9h0.7v1.9h1.3v0.7h-1.3v4.8H345.2z"/><path class="st3" d="M348.6,782.2v-4.8h-1.1v-0.7h1.1v-1.9h0.7v1.9h1.3v0.7h-1.3v4.8H348.6z"/><path class="st3" d="M356.7,779.7h-4.9c0,0.2,0.1,0.5,0.2,0.7c0.1,0.2,0.3,0.5,0.5,0.6c0.4,0.4,0.9,0.6,1.5,0.6
			c0.8,0,1.6-0.4,1.9-1.2h0.8c-0.1,0.2-0.2,0.5-0.4,0.7c-0.1,0.2-0.3,0.3-0.5,0.5c-0.3,0.2-0.6,0.4-0.9,0.5c-0.3,0.1-0.7,0.2-1,0.2
			c-1.6,0-2.8-1.3-2.8-2.8c0,0,0,0,0,0c0-1,0.5-1.9,1.4-2.5c0.4-0.3,0.9-0.4,1.4-0.4c0.9,0,1.7,0.4,2.2,1.1c0.3,0.3,0.4,0.7,0.5,1.1
			C356.7,779,356.8,779.3,356.7,779.7L356.7,779.7z M351.8,779h4.2c-0.1-0.3-0.2-0.6-0.4-0.8c-0.2-0.3-0.4-0.5-0.7-0.6
			c-0.3-0.1-0.6-0.2-0.9-0.2c-0.3,0-0.6,0.1-0.9,0.2c-0.3,0.1-0.5,0.3-0.7,0.6C352.1,778.4,351.9,778.7,351.8,779L351.8,779z"/><path class="st3" d="M357.8,782.2v-5.4h0.7v0.8c0.1-0.2,0.2-0.3,0.3-0.4c0.1-0.1,0.3-0.2,0.5-0.3c0.3-0.1,0.5-0.2,0.8-0.2v0.7
			c-0.3,0-0.5,0.1-0.8,0.2c-0.3,0.2-0.5,0.4-0.6,0.7c-0.1,0.3-0.2,0.6-0.1,0.9v3L357.8,782.2L357.8,782.2z"/><path class="st3" d="M368.3,776.7v5.4h-0.7v-0.8c-0.1,0.2-0.2,0.3-0.4,0.5c-0.4,0.3-0.9,0.5-1.4,0.5c-0.7,0-1.3-0.2-1.8-0.8
			c-0.2-0.2-0.3-0.4-0.4-0.7c-0.1-0.4-0.2-0.8-0.1-1.2v-2.9h0.7v2.9c0,0.2,0,0.5,0,0.7c0,0.2,0.1,0.5,0.3,0.7
			c0.1,0.2,0.3,0.3,0.6,0.4c0.5,0.2,1.1,0.2,1.5,0c0.2-0.1,0.4-0.3,0.6-0.5c0.1-0.1,0.2-0.3,0.2-0.5c0-0.3,0.1-0.6,0.1-0.8v-2.9
			L368.3,776.7L368.3,776.7z"/><path class="st3" d="M369.1,780.5h0.7c0,0.3,0.1,0.5,0.3,0.7c0.2,0.2,0.4,0.3,0.7,0.3c0.3,0,0.5-0.1,0.7-0.3
			c0.2-0.2,0.3-0.4,0.3-0.7c0-0.3-0.1-0.5-0.3-0.7c-0.2-0.2-0.5-0.3-0.7-0.3c-0.3-0.1-0.5-0.2-0.7-0.3c-0.4-0.2-0.7-0.7-0.7-1.2
			c0-0.4,0.2-0.8,0.5-1.1c0.3-0.3,0.7-0.4,1.1-0.4c0.4,0,0.8,0.1,1.1,0.4c0.3,0.3,0.5,0.7,0.5,1.1h-0.7c0-0.2-0.1-0.4-0.2-0.6
			c-0.2-0.1-0.4-0.2-0.6-0.2c-0.2,0-0.4,0.1-0.5,0.2c-0.1,0.1-0.2,0.3-0.2,0.5c0,0.2,0.1,0.4,0.2,0.6c0.1,0.1,0.2,0.1,0.3,0.2
			l0.5,0.2c0.3,0.1,0.6,0.2,0.9,0.4c0.2,0.1,0.4,0.3,0.5,0.5c0.1,0.2,0.2,0.5,0.1,0.7c0,0.9-0.7,1.7-1.6,1.7c0,0-0.1,0-0.1,0
			c-0.3,0-0.6-0.1-0.9-0.2c-0.3-0.1-0.5-0.4-0.6-0.6C369.2,781.2,369.1,780.9,369.1,780.5L369.1,780.5z"/><path class="st3" d="M378.9,779.7h-4.9c0,0.2,0.1,0.5,0.2,0.7c0.1,0.2,0.3,0.5,0.5,0.6c0.4,0.4,0.9,0.6,1.5,0.6
			c0.8,0,1.6-0.4,1.9-1.2h0.8c-0.1,0.2-0.2,0.5-0.4,0.7c-0.1,0.2-0.3,0.3-0.5,0.5c-0.3,0.2-0.6,0.4-0.9,0.5c-0.3,0.1-0.7,0.2-1,0.2
			c-1.6,0-2.8-1.3-2.8-2.8c0,0,0,0,0,0c0-1,0.5-1.9,1.4-2.5c0.4-0.3,0.9-0.4,1.4-0.4c0.4,0,0.8,0.1,1.2,0.3c0.4,0.2,0.7,0.4,1,0.8
			c0.3,0.3,0.4,0.7,0.5,1.1C378.8,779,378.9,779.3,378.9,779.7z M374,779h4.1c-0.1-0.3-0.2-0.6-0.4-0.8c-0.2-0.3-0.4-0.5-0.7-0.6
			c-0.3-0.1-0.6-0.2-0.9-0.2c-0.3,0-0.6,0.1-0.9,0.2c-0.3,0.1-0.5,0.3-0.7,0.6C374.2,778.4,374,778.7,374,779L374,779z"/><path class="st3" d="M379.9,782.2v-5.4h0.7v0.8c0.1-0.2,0.2-0.3,0.3-0.4c0.1-0.1,0.3-0.2,0.5-0.3c0.3-0.1,0.5-0.2,0.8-0.2v0.7
			c-0.3,0-0.5,0.1-0.8,0.2c-0.3,0.2-0.5,0.4-0.6,0.7c-0.1,0.3-0.2,0.6-0.1,0.9v3L379.9,782.2L379.9,782.2z"/><path class="st3" d="M391,779.7h-4.9c0,0.2,0.1,0.5,0.2,0.7c0.1,0.2,0.3,0.5,0.5,0.6c0.4,0.4,0.9,0.6,1.5,0.6
			c0.8,0,1.6-0.4,1.9-1.2h0.9c-0.1,0.2-0.2,0.5-0.4,0.7c-0.1,0.2-0.3,0.3-0.5,0.5c-0.3,0.2-0.6,0.4-0.9,0.5c-0.3,0.1-0.7,0.2-1,0.2
			c-1.6,0-2.8-1.3-2.8-2.8c0,0,0,0,0,0c0-1,0.5-1.9,1.4-2.5c0.4-0.3,0.9-0.4,1.4-0.4c0.4,0,0.8,0.1,1.2,0.3c0.4,0.2,0.7,0.4,1,0.8
			c0.3,0.3,0.4,0.7,0.5,1.1C391.1,779,391.1,779.3,391,779.7L391,779.7z M386.1,779h4.1c-0.1-0.3-0.2-0.6-0.4-0.8
			c-0.2-0.3-0.5-0.5-0.7-0.6c-0.3-0.1-0.6-0.2-0.9-0.2c-0.3,0-0.6,0.1-0.9,0.2c-0.3,0.1-0.5,0.3-0.7,0.6
			C386.3,778.4,386.2,778.7,386.1,779L386.1,779z"/><path class="st3" d="M391.5,782.2l1.9-2.8l-1.9-2.7h0.9l1.4,2.1l1.4-2.1h0.9l-1.9,2.7l1.9,2.8h-0.9l-1.4-2.2l-1.4,2.2L391.5,782.2
			z"/><path class="st3" d="M396.8,776.7h0.7v0.9c0.1-0.2,0.3-0.3,0.4-0.5c0.5-0.4,1.1-0.6,1.8-0.6c0.4,0,0.8,0.1,1.2,0.3
			c0.4,0.2,0.7,0.5,1,0.8c0.4,0.5,0.7,1.1,0.6,1.8c0,0.5-0.1,1-0.4,1.4c-0.3,0.4-0.6,0.8-1.1,1c-0.4,0.3-0.9,0.4-1.5,0.4
			c-0.6,0-1.2-0.2-1.7-0.6c-0.2-0.1-0.3-0.3-0.4-0.5v2.9h-0.7L396.8,776.7L396.8,776.7z M399.7,781.6c0.3,0,0.6-0.1,0.9-0.2
			c0.3-0.1,0.5-0.3,0.7-0.5c0.2-0.2,0.3-0.4,0.5-0.7c0.5-1.1-0.1-2.4-1.1-2.8c-0.3-0.1-0.6-0.2-0.9-0.2c-0.4,0-0.8,0.1-1.1,0.3
			c-0.3,0.2-0.6,0.4-0.8,0.8c-0.2,0.3-0.3,0.7-0.3,1.1c0,0.7,0.4,1.5,1,1.8C398.8,781.5,399.2,781.6,399.7,781.6L399.7,781.6
			L399.7,781.6z"/><path class="st3" d="M409.1,779.7h-4.9c0,0.2,0.1,0.5,0.2,0.7c0.1,0.2,0.3,0.5,0.5,0.6c0.4,0.4,0.9,0.6,1.5,0.6
			c0.8,0,1.6-0.4,1.9-1.2h0.8c-0.1,0.2-0.2,0.5-0.4,0.7c-0.1,0.2-0.3,0.3-0.5,0.5c-0.3,0.2-0.6,0.4-0.9,0.5c-0.3,0.1-0.7,0.2-1,0.2
			c-1.6,0-2.8-1.3-2.8-2.8c0,0,0,0,0,0c0-1,0.5-1.9,1.4-2.5c0.4-0.3,0.9-0.4,1.4-0.4c0.9,0,1.7,0.4,2.2,1.1c0.3,0.3,0.4,0.7,0.5,1.1
			C409,779,409.1,779.3,409.1,779.7z M404.2,779h4.1c-0.1-0.3-0.2-0.6-0.4-0.8c-0.2-0.3-0.4-0.5-0.7-0.6c-0.3-0.1-0.6-0.2-0.9-0.2
			c-0.3,0-0.6,0.1-0.9,0.2c-0.3,0.1-0.5,0.3-0.7,0.6C404.4,778.4,404.2,778.7,404.2,779L404.2,779z"/><path class="st3" d="M410.1,782.2v-5.4h0.7v0.8c0.1-0.2,0.2-0.3,0.3-0.4c0.1-0.1,0.3-0.2,0.5-0.3c0.3-0.1,0.5-0.2,0.8-0.2v0.7
			c-0.3,0-0.5,0.1-0.8,0.2c-0.3,0.2-0.5,0.4-0.6,0.7c-0.1,0.3-0.2,0.6-0.1,0.9v3L410.1,782.2L410.1,782.2z"/><path class="st3" d="M413.1,782.2v-5.4h0.7v5.4H413.1z M413.1,776.1v-1.3h0.7v1.3H413.1z"/><path class="st3" d="M420.5,779.7h-4.9c0,0.2,0.1,0.5,0.2,0.7c0.1,0.2,0.3,0.5,0.5,0.6c0.4,0.4,0.9,0.6,1.5,0.6
			c0.8,0,1.6-0.4,1.9-1.2h0.8c-0.1,0.2-0.2,0.5-0.4,0.7c-0.1,0.2-0.3,0.3-0.5,0.5c-0.3,0.2-0.6,0.4-0.9,0.5c-0.3,0.1-0.7,0.2-1,0.2
			c-1.6,0-2.8-1.3-2.8-2.8c0,0,0,0,0,0c0-0.5,0.1-1,0.4-1.4c0.2-0.4,0.6-0.8,1-1c0.4-0.3,0.9-0.4,1.4-0.4c0.9,0,1.7,0.4,2.2,1.1
			c0.3,0.3,0.4,0.7,0.5,1.1C420.5,779.1,420.5,779.4,420.5,779.7L420.5,779.7z M415.6,779h4.1c-0.1-0.3-0.2-0.6-0.4-0.8
			c-0.2-0.3-0.4-0.5-0.7-0.6c-0.3-0.1-0.6-0.2-0.9-0.2c-0.3,0-0.6,0.1-0.9,0.2c-0.3,0.1-0.5,0.3-0.7,0.6
			C415.8,778.4,415.7,778.7,415.6,779L415.6,779z"/><path class="st3" d="M421.5,782.2v-5.4h0.7v0.8c0.1-0.2,0.2-0.3,0.4-0.5c0.4-0.3,0.9-0.5,1.4-0.5c1-0.1,1.9,0.5,2.2,1.5
			c0.1,0.4,0.2,0.8,0.1,1.2v2.9h-0.7v-2.9c0-0.2,0-0.5,0-0.7c0-0.4-0.2-0.7-0.5-0.9c-0.3-0.2-0.7-0.4-1.1-0.3
			c-0.3,0-0.6,0.1-0.8,0.2c-0.2,0.1-0.4,0.3-0.6,0.5c-0.1,0.1-0.2,0.3-0.2,0.5c0,0.3-0.1,0.5-0.1,0.8v2.9L421.5,782.2L421.5,782.2z"
/><path class="st3" d="M432.2,780.6h0.8c-0.1,0.2-0.2,0.4-0.3,0.6c-0.1,0.1-0.2,0.3-0.3,0.4c-0.5,0.5-1.3,0.8-2,0.8
			c-0.5,0-1-0.1-1.5-0.4c-0.4-0.2-0.8-0.6-1.1-1c-0.5-0.9-0.5-2,0-2.9c0.3-0.4,0.6-0.8,1.1-1c0.5-0.3,1-0.4,1.5-0.4
			c0.8,0,1.6,0.3,2.1,0.9c0.2,0.3,0.4,0.6,0.6,0.9h-0.8c-0.1-0.2-0.3-0.4-0.5-0.5c-0.4-0.3-0.9-0.5-1.4-0.5c-0.4,0-0.8,0.1-1.1,0.3
			c-0.3,0.2-0.6,0.4-0.8,0.8c-0.2,0.3-0.3,0.7-0.3,1.1c0,0.4,0.1,0.8,0.3,1.1c0.2,0.3,0.5,0.6,0.8,0.8c0.3,0.2,0.7,0.3,1.1,0.3
			c0.3,0,0.7-0.1,1-0.2c0.2-0.1,0.3-0.2,0.4-0.3C431.9,781,432,780.8,432.2,780.6L432.2,780.6z"/><path class="st3" d="M439.5,779.7h-4.9c0,0.2,0.1,0.5,0.2,0.7c0.1,0.2,0.3,0.5,0.5,0.6c0.4,0.4,0.9,0.6,1.5,0.6
			c0.6,0,1.1-0.2,1.5-0.6c0.2-0.2,0.3-0.4,0.4-0.6h0.8c-0.1,0.2-0.2,0.5-0.4,0.7c-0.1,0.2-0.3,0.3-0.5,0.5c-0.3,0.2-0.6,0.4-0.9,0.5
			c-0.3,0.1-0.7,0.2-1,0.2c-1.6,0-2.8-1.3-2.8-2.8c0,0,0,0,0,0c0-1,0.5-1.9,1.4-2.5c0.4-0.3,0.9-0.4,1.4-0.4c0.4,0,0.8,0.1,1.2,0.3
			c0.4,0.2,0.7,0.4,1,0.8c0.3,0.3,0.4,0.7,0.5,1.1C439.4,779,439.5,779.3,439.5,779.7L439.5,779.7z M434.6,779h4.1
			c-0.1-0.3-0.2-0.6-0.4-0.8c-0.2-0.3-0.5-0.5-0.7-0.6c-0.3-0.1-0.6-0.2-0.9-0.2c-0.3,0-0.6,0.1-0.9,0.2c-0.3,0.1-0.5,0.3-0.7,0.6
			C434.8,778.4,434.6,778.7,434.6,779L434.6,779z"/></g><path id="androidlogo" class="st3" d="M297.8,763.1v-1.4h-1.3v1.4H297.8z M291.1,763.1v-1.4h-1.3v1.4H291.1z M298.5,759.3
		c1,0.7,1.8,1.7,2.4,2.8c0.6,1.1,0.9,2.4,0.9,3.6h-16c0-1.3,0.3-2.5,0.9-3.7c0.6-1.1,1.4-2.1,2.4-2.8l-1.8-1.8
		c-0.2-0.3-0.2-0.7,0.1-0.9c0.2-0.2,0.6-0.2,0.9,0l2,2c2.2-1.1,4.8-1.1,7,0l2-2c0.3-0.2,0.7-0.2,0.9,0.1c0.2,0.2,0.2,0.6,0,0.9
		L298.5,759.3L298.5,759.3z M305.1,767.1c1.1,0,2,0.9,2,2v9.3c0,0.5-0.2,1.1-0.6,1.4c-0.4,0.4-0.9,0.6-1.4,0.6c-0.5,0-1-0.2-1.4-0.6
		c-0.4-0.4-0.6-0.9-0.6-1.4v-9.3c0-0.5,0.2-1,0.6-1.4C304.1,767.3,304.6,767.1,305.1,767.1L305.1,767.1z M282.5,767.1
		c1.1,0,2,0.9,2,2v9.3c0,0.5-0.2,1.1-0.6,1.4c-0.4,0.4-0.9,0.6-1.4,0.6c-0.5,0-1-0.2-1.4-0.6c-0.4-0.4-0.6-0.9-0.6-1.4v-9.3
		c0-0.5,0.2-1,0.6-1.4C281.4,767.3,282,767.1,282.5,767.1L282.5,767.1z M285.8,780.4v-13.3h16v13.3c0,0.7-0.6,1.3-1.3,1.3h-1.4v4.7
		c0,1.1-0.9,2-2,2c-0.5,0-1-0.2-1.4-0.6c-0.4-0.4-0.6-0.9-0.6-1.4v-4.7h-2.6v4.7c0,1.1-0.9,2-2,2c-0.5,0-1-0.2-1.4-0.6
		c-0.4-0.4-0.6-0.9-0.6-1.4v-4.7h-1.4C286.3,781.7,285.7,781.1,285.8,780.4L285.8,780.4z"/></g></a><g id="logo"><path class="st4" d="M460.9,577.4l-0.1,5.3h-2.3l0.1-5c0-0.2,0-0.3,0-0.5c0-0.2-0.1-0.3-0.1-0.5c-0.1-0.2-0.2-0.3-0.4-0.4
		c-0.3-0.1-0.6-0.1-0.9-0.1h-1.8l-0.1,6.5h-2.2l0.1-8.4l4.2,0.1c0.7,0,1.3,0.1,1.9,0.3c0.5,0.2,0.9,0.5,1.2,1
		c0.3,0.6,0.4,1.2,0.4,1.9"/><path class="st4" d="M452.9,596.9v1.7h-2c-0.7,0-1.4-0.2-1.9-0.7c-0.4-0.5-0.7-1.2-0.6-1.9l0.1-4.1h-1.5v-1.7h1.5v-3.1h2.2v3.1h2.4
		v1.7h-2.4l-0.1,3.4c0,0.4,0,0.8,0.2,1.1c0.2,0.2,0.4,0.4,0.7,0.5c0.4,0.1,0.8,0.1,1.2,0.1L452.9,596.9L452.9,596.9z"/><path class="st4" d="M449.1,580.8l0.1-4.9H448c-0.5,0-0.9,0-1.4,0.1c-0.3,0.1-0.6,0.2-0.9,0.5c-0.2,0.2-0.3,0.4-0.4,0.7
		c-0.1,0.2-0.1,0.5-0.1,0.7v0.5c-0.1,0.8,0.2,1.5,0.8,2c0.2,0.2,0.4,0.3,0.7,0.3c0.3,0.1,0.6,0.1,0.9,0.1L449.1,580.8L449.1,580.8z
		 M451.4,574.2l-0.1,8.1c0,0.6-0.1,1.2-0.4,1.8c-0.2,0.5-0.6,0.9-1,1.1c-0.6,0.3-1.2,0.4-1.8,0.3l-4.4-0.1v-1.7l4,0.1h0.2
		c0.6,0,1.2-0.5,1.2-1.2c0,0,0-0.1,0-0.1H447c-0.4,0-0.7,0-1.1-0.1c-0.3-0.1-0.6-0.1-0.9-0.3c-0.9-0.4-1.5-1.2-1.8-2.1
		c-0.2-0.6-0.3-1.2-0.3-1.8c-0.1-1,0.2-2,0.9-2.8c0.4-0.4,0.9-0.7,1.4-1c0.3-0.1,0.7-0.2,1-0.3c0.3,0,0.5-0.1,0.8-0.1h0.4l4,0.1
		L451.4,574.2L451.4,574.2z"/><path class="st4" d="M443.4,598.5l0.1-8.4h2.3l-0.1,8.4H443.4z"/><rect x="443.5" y="587" class="st4" width="2.3" height="2.1"/><path class="st4" d="M441.5,593.1l-0.1,5.3h-2.2l0.1-5v-0.5c0-0.2-0.1-0.3-0.1-0.5c-0.1-0.2-0.2-0.3-0.4-0.4
		c-0.3-0.1-0.6-0.2-0.9-0.1h-1.8l-0.1,6.5h-2.2l0.1-8.4l4.2,0.1c0.7,0,1.3,0.1,1.9,0.3c0.5,0.2,0.9,0.5,1.2,1
		c0.3,0.6,0.4,1.2,0.4,1.9"/><path class="st4" d="M439.2,582.4l0.1-8.4h2.3l-0.1,8.4H439.2z"/><rect x="439.3" y="570.9" class="st4" width="2.3" height="2.1"/><path class="st4" d="M437.6,579.6c0,0.4-0.1,0.8-0.2,1.2c-0.1,0.3-0.2,0.5-0.4,0.7c-0.2,0.2-0.4,0.4-0.6,0.5
		c-0.3,0.2-0.7,0.3-1.1,0.3l-5.7-0.1v-1.7l4.7,0.1c0.8,0,1.2-0.3,1.2-0.8s-0.4-0.8-1.2-0.8h-2.6l-0.7-0.1c-0.3,0-0.6-0.2-0.8-0.3
		c-0.3-0.2-0.4-0.4-0.5-0.7c-0.1-0.4-0.2-0.8-0.2-1.2c0-1.8,1-2.7,3-2.6l4.7,0.1v1.7l-3.9-0.1h-0.4c-0.7,0-1,0.2-1.1,0.5v0.3
		c0,0.5,0.3,0.7,1,0.7h2c0.4,0,0.7,0,1.1,0.2c0.3,0.1,0.6,0.2,0.9,0.5c0.3,0.2,0.5,0.5,0.6,0.8C437.5,578.9,437.6,579.2,437.6,579.6
		"/><path class="st4" d="M429.5,598.2l0.1-8.4h2.3l-0.1,8.4H429.5z"/><rect x="429.7" y="586.8" class="st4" width="2.3" height="2.1"/><path class="st4" d="M428.6,589.8v1.7h-2.1l-0.1,6.7H424l0.1-6.7h-1.6v-1.7h1.6v-1c0-0.2,0-0.4,0.1-0.7c0-0.3,0.1-0.5,0.3-0.7
		c0.2-0.2,0.4-0.4,0.7-0.5c0.4-0.1,0.8-0.2,1.3-0.2h2.1v1.7h-0.9c-0.3,0-0.6,0-0.9,0.2c-0.2,0.1-0.3,0.3-0.3,0.7v0.5h2.1
		L428.6,589.8L428.6,589.8z"/><path class="st4" d="M428.3,580.5v1.7h-3.2c-1.2,0.1-2.3-0.4-3.2-1.2c-0.7-0.9-1.1-2-1-3.1c-0.1-1,0.2-2,0.9-2.8
		c0.4-0.5,1-0.9,1.6-1.1c0.6-0.2,1.2-0.2,1.8-0.2h3.2v1.7h-2.9c-0.4,0-0.8,0-1.1,0.1c-0.3,0.1-0.5,0.2-0.7,0.5
		c-0.2,0.3-0.3,0.6-0.3,1l5,0.1v1.8l-5-0.1c0,0.3,0.1,0.7,0.2,1c0.2,0.2,0.4,0.4,0.7,0.5c0.4,0.1,0.8,0.1,1.2,0.1L428.3,580.5
		L428.3,580.5z"/><path class="st4" d="M421.5,592.8l-0.1,5.3h-2.3l0.1-5v-0.5c0-0.2-0.1-0.3-0.1-0.5c-0.1-0.2-0.2-0.3-0.4-0.4
		c-0.3-0.1-0.6-0.2-0.9-0.1H416l-0.1,6.5h-2.2l0.1-8.4l4.2,0.1c0.7,0,1.3,0.1,1.9,0.3c0.5,0.2,0.9,0.5,1.2,1
		c0.3,0.6,0.4,1.2,0.4,1.9"/><path class="st4" d="M417.3,576.3c0-0.6,0-1.2-0.1-1.8c-0.1-0.5-0.2-0.9-0.5-1.3c-0.2-0.3-0.5-0.5-0.8-0.6
		c-0.2-0.1-0.5-0.1-0.7-0.1c-0.2,0-0.4,0-0.7,0h-2.8l-0.1,7.5h2.8c0.4,0,0.8,0,1.2-0.1c0.3-0.1,0.6-0.2,0.9-0.5
		c0.3-0.4,0.6-0.8,0.6-1.3C417.3,577.6,417.3,577,417.3,576.3 M420,575.9v0.7c0,2-0.5,3.3-1.3,4c-0.6,0.5-1.3,1-2.1,1.2
		c-0.7,0.1-1.3,0.2-2,0.2l-5.3-0.1l0.2-11.5l5.2,0.1c1,0,2,0.2,2.9,0.6c0.7,0.3,1.2,0.8,1.6,1.5c0.3,0.5,0.5,1.1,0.6,1.7
		C419.9,574.8,420,575.4,420,575.9"/><path class="st4" d="M409,597.9l0.2-11.5h2.5l-0.2,11.5L409,597.9z"/><path class="st3" d="M403.2,588.7c0,0.7-0.1,1.3-0.2,2c-0.2,0.7-0.4,1.4-0.7,2.1c-0.4,0.9-1,1.6-1.7,2.1c-0.9,0.6-1.8,1-2.9,1.3
		c-1.3,0.3-2.6,0.4-3.9,0.3l-14.9-0.2l0.1-4.8l14,0.2c1.1,0.1,2.2-0.1,3.2-0.6c0.8-0.5,1.3-1.4,1.2-2.3v-0.6c0-0.6-0.2-1.2-0.6-1.7
		c-0.4-0.4-0.9-0.6-1.4-0.8c-0.6-0.1-1.3-0.2-1.9-0.2l-6.6-0.1c-2.3,0.1-4.6-0.6-6.6-1.9c-1.5-1.2-2.3-3.2-2.2-6
		c0-1.3,0.3-2.6,0.8-3.8c0.4-1,1.1-1.9,2-2.5c0.9-0.6,1.8-1,2.8-1.2c1.3-0.3,2.6-0.4,3.9-0.3l14.7,0.2l-0.1,4.8l-13.8-0.2
		c-2.9,0-4.4,1.1-4.4,3.4c-0.1,0.8,0.3,1.7,1,2.2c0.7,0.5,1.6,0.8,2.5,0.8l7.4,0.1c1.3,0,2.6,0.1,3.8,0.4c1.2,0.3,2.3,1,3.1,1.8
		C402.7,584.2,403.3,586.1,403.2,588.7"/><path class="st3" d="M374.3,591.6l-0.1,4.6l-9.4-0.1c-1.5,0-3.1-0.2-4.5-0.5c-3.3-0.9-5.9-3.4-6.9-6.6c-0.6-1.9-0.9-3.9-0.9-5.9
		l0.1-1.6c0-0.9,0.1-1.9,0.3-2.8c0.2-0.9,0.5-1.7,0.8-2.6c0.3-0.7,0.6-1.5,1.1-2.1c0.5-0.7,1.1-1.4,1.8-2c0.8-0.8,1.8-1.3,2.8-1.7
		c1-0.3,2-0.5,3.1-0.7c1-0.1,1.9-0.2,2.9-0.2l9.3,0.1l-0.1,4.6l-9.2-0.1c-1.7-0.1-3.4,0.4-4.7,1.5c-1.2,1.2-1.8,2.9-1.7,4.6
		l15.5,0.2l-0.1,4.6l-15.5-0.2c0,2.2,0.4,3.8,1.1,4.7c0.6,0.8,1.4,1.3,2.3,1.6c0.9,0.2,1.9,0.3,2.8,0.3L374.3,591.6L374.3,591.6
		L374.3,591.6z"/><path class="st3" d="M353.3,569.2L342.9,584l-0.2,11.7l-5.7-0.1l0.2-11.7l-9.8-15.1l6.2,0.1l6.4,10.3l6.8-10.1L353.3,569.2
		L353.3,569.2L353.3,569.2z"/><path class="st4" d="M315.9,563.2c2.1,1.9,3,4.8,2.4,7.6c-0.7,4.3-2.2,22.4-16,31.1c-12.3,7.7-26.7,5.1-32.5-0.2
		c6.3,2.5,14.6,2.9,21.9-3c8.6-7.1,10.6-19,14.1-26.6c1.2-2.7,2.5-6.5,4.5-6s-3.8-2-5.7-2.3s-7-0.3-8.8,2.3s-5.1,10.8-5.4,11.7
		s-0.9,1.8-1.8,1.8l-7-0.1c-1.2,0-1.1-1.5-0.8-2.5s2.1-11.7,6-13c5.3-1.8-1.4-1.8-1.9-1.8c-4.3-0.2-8.3,2.1-10.3,6
		c-1.5,3.1-2.8,6.2-3.9,9.4c-1,2.6-0.8,8.7,4.4,8.8l11.8,0.2c0,0-0.4,11.8-12.2,11.6c-3.8-0.2-7.5-1.8-10.2-4.6
		c-2.4-2.3-15.1-21.8,8-33.6S315,562.4,315.9,563.2"/></g><g id="crossplatform"><path class="st5" d="M287.5,625.8h1c-0.1,0.2-0.3,0.5-0.4,0.7c-0.1,0.2-0.3,0.3-0.4,0.5c-0.7,0.7-1.6,1-2.5,1
		c-0.7,0-1.3-0.2-1.9-0.5c-1.7-0.9-2.4-3.1-1.4-4.8c0,0,0.1-0.1,0.1-0.1c0.3-0.5,0.8-1,1.4-1.3c0.6-0.3,1.2-0.5,1.9-0.5
		c1,0,2,0.4,2.7,1.1c0.3,0.3,0.5,0.7,0.7,1.1h-1c-0.2-0.3-0.4-0.5-0.6-0.7c-0.5-0.4-1.1-0.7-1.8-0.7c-0.5,0-1,0.1-1.4,0.4
		c-0.4,0.2-0.8,0.6-1,1c-0.2,0.4-0.4,0.9-0.4,1.3c0,0.5,0.1,1,0.4,1.4c0.2,0.4,0.6,0.8,1,1c0.4,0.2,0.9,0.4,1.4,0.4
		c0.4,0,0.9-0.1,1.3-0.3c0.2-0.1,0.4-0.2,0.5-0.4C287.1,626.3,287.3,626.1,287.5,625.8L287.5,625.8L287.5,625.8z"/><path class="st5" d="M289.8,627.8v-6.9h0.9v1c0.1-0.2,0.2-0.4,0.4-0.5c0.2-0.2,0.4-0.3,0.6-0.4c0.3-0.1,0.7-0.2,1-0.2v0.9
		c-0.3,0-0.7,0.1-1,0.3c-0.3,0.2-0.6,0.5-0.8,0.9c-0.1,0.4-0.2,0.7-0.2,1.1v3.8L289.8,627.8L289.8,627.8z"/><path class="st5" d="M296.9,620.8c0.6,0,1.3,0.2,1.8,0.5c0.5,0.3,1,0.8,1.3,1.3c0.3,0.5,0.5,1.2,0.5,1.8c0,0.6-0.2,1.3-0.5,1.8
		c-0.3,0.5-0.8,1-1.3,1.3c-0.5,0.3-1.2,0.5-1.8,0.5c-0.6,0-1.2-0.2-1.8-0.5c-0.5-0.3-1-0.8-1.3-1.3c-0.3-0.5-0.5-1.2-0.5-1.8
		c0-0.6,0.2-1.3,0.5-1.8c0.3-0.5,0.8-1,1.3-1.3C295.6,620.9,296.2,620.8,296.9,620.8L296.9,620.8z M296.9,621.7
		c-0.5,0-1,0.1-1.4,0.4c-0.4,0.2-0.8,0.6-1,1c-0.2,0.4-0.4,0.9-0.4,1.4c0,1.5,1.2,2.7,2.7,2.7c0,0,0,0,0,0c0.5,0,0.9-0.1,1.3-0.4
		c0.4-0.2,0.8-0.6,1-1c0.2-0.4,0.4-0.9,0.4-1.4c0-0.5-0.1-0.9-0.4-1.3c-0.2-0.4-0.6-0.8-1-1C297.8,621.8,297.4,621.6,296.9,621.7
		L296.9,621.7L296.9,621.7z"/><path class="st5" d="M301.2,625.8h0.9c0,0.3,0.1,0.7,0.4,0.9c0.2,0.2,0.5,0.4,0.9,0.4c0.3,0,0.6-0.1,0.9-0.3
		c0.5-0.4,0.5-1.2,0.1-1.6c0,0,0,0-0.1-0.1c-0.3-0.2-0.6-0.4-0.9-0.4c-0.3-0.1-0.6-0.2-0.9-0.4c-0.6-0.3-0.9-0.9-0.9-1.5
		c0-0.5,0.2-1,0.6-1.4c0.4-0.4,0.9-0.6,1.4-0.6c0.5,0,1,0.2,1.3,0.5c0.4,0.4,0.6,0.8,0.6,1.3h-0.9c0-0.6-0.4-1-1-1
		c-0.3,0-0.5,0.1-0.7,0.3c-0.4,0.4-0.4,1,0,1.4c0.1,0.1,0.2,0.1,0.3,0.2l0.6,0.2c0.4,0.1,0.8,0.3,1.1,0.5c0.3,0.2,0.5,0.4,0.6,0.6
		c0.1,0.3,0.2,0.6,0.2,0.9c0,0,0,0,0,0.1c0,1.2-1,2.1-2.1,2.1h-0.1c-0.4,0-0.8-0.1-1.1-0.3c-0.3-0.2-0.6-0.4-0.8-0.8
		C301.4,626.5,301.3,626.1,301.2,625.8L301.2,625.8z"/><path class="st5" d="M306.1,625.8h0.9c0,0.3,0.1,0.7,0.4,0.9c0.2,0.2,0.5,0.4,0.9,0.4c0.3,0,0.6-0.1,0.9-0.3c0.5-0.5,0.4-1.2,0-1.6
		c0,0-0.1-0.1-0.1-0.1c-0.3-0.2-0.6-0.4-0.9-0.4c-0.3-0.1-0.6-0.2-0.9-0.4c-0.6-0.3-0.9-0.9-0.9-1.5c0-0.5,0.2-1,0.6-1.4
		c0.4-0.4,0.9-0.6,1.4-0.6c0.5,0,1,0.2,1.3,0.5c0.4,0.4,0.6,0.8,0.6,1.3h-0.9c0-0.3-0.1-0.5-0.3-0.7c-0.2-0.2-0.5-0.3-0.8-0.3
		c-0.3,0-0.5,0.1-0.7,0.3c-0.2,0.2-0.3,0.4-0.3,0.7c0,0.3,0.1,0.5,0.3,0.7c0.1,0.1,0.2,0.1,0.3,0.2l0.6,0.2c0.4,0.1,0.8,0.3,1.1,0.5
		c0.3,0.2,0.5,0.4,0.6,0.6c0.1,0.3,0.2,0.6,0.2,0.9c0,0,0,0,0,0.1c0,1.2-1,2.1-2.1,2.1h-0.1c-0.4,0-0.8-0.1-1.1-0.3
		c-0.3-0.2-0.6-0.4-0.8-0.8C306.1,626.5,306,626.1,306.1,625.8L306.1,625.8L306.1,625.8z"/><path class="st5" d="M315,620.9h0.9v1.2c0.1-0.2,0.3-0.4,0.5-0.6c0.6-0.5,1.4-0.8,2.2-0.8c0.5,0,1,0.1,1.5,0.3
		c0.5,0.2,0.9,0.6,1.3,1c0.6,0.6,0.8,1.4,0.8,2.3c0,0.6-0.2,1.3-0.5,1.8c-0.3,0.5-0.8,1-1.3,1.3c-0.6,0.3-1.2,0.5-1.8,0.5
		c-0.8,0-1.6-0.2-2.1-0.8c-0.2-0.2-0.4-0.4-0.5-0.7v3.7H315V620.9L315,620.9z M318.6,627.1c0.4,0,0.8-0.1,1.1-0.2
		c0.3-0.1,0.6-0.3,0.9-0.6c0.2-0.2,0.4-0.5,0.6-0.8c0.6-1.4-0.1-3-1.5-3.6c-0.3-0.1-0.7-0.2-1-0.2c-0.5,0-1,0.1-1.4,0.3
		c-0.4,0.2-0.8,0.6-1,1c-0.7,1.3-0.3,2.9,1,3.7C317.6,627,318.1,627.1,318.6,627.1L318.6,627.1L318.6,627.1z"/><rect x="323.5" y="618.5" class="st5" width="0.9" height="9.3"/><path class="st5" d="M333,620.9v6.9h-0.9v-1.3c-0.2,0.3-0.3,0.5-0.6,0.7c-0.6,0.5-1.3,0.8-2.1,0.7c-0.6,0-1.2-0.1-1.7-0.4
		c-0.5-0.2-1-0.6-1.4-1c-0.2-0.3-0.4-0.6-0.5-1c-0.1-0.4-0.2-0.8-0.2-1.2c0-0.6,0.2-1.2,0.5-1.8c0.3-0.5,0.8-1,1.3-1.3
		c0.6-0.3,1.2-0.5,1.8-0.5c0.4,0,0.8,0.1,1.2,0.2c0.6,0.2,1.2,0.7,1.5,1.3V621L333,620.9L333,620.9L333,620.9z M329.5,621.7
		c-0.5,0-1,0.1-1.5,0.3c-0.4,0.2-0.8,0.6-1,1c-0.2,0.4-0.4,0.9-0.4,1.4c0,0.5,0.1,0.9,0.4,1.3c0.2,0.4,0.6,0.8,1,1
		c0.4,0.2,0.9,0.4,1.4,0.4c0.5,0,0.9-0.1,1.3-0.4c0.4-0.2,0.8-0.6,1-1c0.2-0.4,0.4-0.9,0.4-1.3c0-1-0.5-1.8-1.3-2.3
		C330.3,621.8,329.9,621.6,329.5,621.7L329.5,621.7L329.5,621.7z"/><path class="st5" d="M335.4,627.8v-6H334v-0.8h1.4v-2.4h0.9v2.4h1.6v0.8h-1.6v6H335.4z"/><path class="st5" d="M339.4,627.8v-6h-1.1v-0.8h1.1c0-0.3,0.1-0.7,0.2-1c0.1-0.3,0.3-0.5,0.5-0.7c0.2-0.2,0.5-0.4,0.8-0.5
		c0.3-0.1,0.7-0.2,1-0.2h0.2v0.8h-0.2c-1,0-1.5,0.5-1.5,1.4v0.1h1.7v0.8h-1.7v6L339.4,627.8L339.4,627.8L339.4,627.8z"/><path class="st5" d="M346.1,620.8c0.6,0,1.3,0.2,1.8,0.5c0.5,0.3,1,0.8,1.3,1.3c0.3,0.5,0.5,1.2,0.5,1.8c0,0.6-0.2,1.3-0.5,1.8
		c-0.3,0.5-0.8,1-1.3,1.3c-0.5,0.3-1.2,0.5-1.8,0.5c-0.6,0-1.2-0.2-1.8-0.5c-0.5-0.3-1-0.8-1.3-1.3c-0.3-0.5-0.5-1.2-0.5-1.8
		c0-0.6,0.2-1.3,0.5-1.8c0.3-0.5,0.8-1,1.3-1.3C344.9,620.9,345.5,620.8,346.1,620.8L346.1,620.8L346.1,620.8z M346.1,621.7
		c-0.5,0-1,0.1-1.4,0.4c-0.4,0.2-0.8,0.6-1,1c-0.2,0.4-0.4,0.9-0.4,1.4l0,0c0,1.5,1.2,2.7,2.7,2.7l0,0c0.5,0,0.9-0.1,1.3-0.4
		c0.4-0.2,0.8-0.6,1-1c0.2-0.4,0.4-0.9,0.4-1.4c0-0.5-0.1-0.9-0.4-1.3c-0.2-0.4-0.6-0.8-1-1C347,621.8,346.6,621.6,346.1,621.7
		L346.1,621.7L346.1,621.7z"/><path class="st5" d="M351,627.8v-6.9h0.9v1c0.1-0.2,0.2-0.4,0.4-0.5c0.2-0.2,0.4-0.3,0.6-0.4c0.3-0.1,0.7-0.2,1-0.2v0.9
		c-0.3,0-0.7,0.1-1,0.3c-0.3,0.2-0.6,0.5-0.8,0.9c-0.1,0.4-0.2,0.7-0.2,1.1v3.8L351,627.8L351,627.8z"/><path class="st5" d="M354.8,627.8v-6.9h0.9v1c0.2-0.4,0.5-0.6,0.8-0.8c0.4-0.2,0.8-0.3,1.2-0.3c0.5,0,0.9,0.1,1.4,0.3
		c0.4,0.3,0.7,0.6,0.8,1.1c0.2-0.4,0.5-0.8,0.9-1.1c0.4-0.2,0.9-0.3,1.4-0.3c0.5,0,1.1,0.1,1.5,0.3c0.4,0.2,0.7,0.6,0.9,1
		c0.2,0.5,0.3,1.1,0.3,1.7v3.9h-0.9V624c0-1.5-0.6-2.3-1.9-2.3c-0.6,0-1.2,0.3-1.6,0.8c-0.1,0.2-0.2,0.4-0.2,0.6c0,0.3,0,0.6,0,0.9
		v3.8h-0.9v-3.9c0-0.3,0-0.6-0.1-0.9c-0.1-0.3-0.2-0.5-0.4-0.7c-0.2-0.2-0.4-0.4-0.6-0.5c-0.2-0.1-0.5-0.2-0.8-0.2
		c-0.3,0-0.6,0.1-0.9,0.2c-0.3,0.1-0.5,0.3-0.6,0.5c-0.1,0.2-0.2,0.4-0.3,0.6c-0.1,0.3-0.1,0.6-0.1,0.9v3.9L354.8,627.8L354.8,627.8
		L354.8,627.8z"/><path class="st5" d="M377,620.9v6.9h-0.9v-1.3c-0.2,0.3-0.3,0.5-0.6,0.7c-0.6,0.5-1.3,0.8-2.1,0.7c-0.6,0-1.2-0.1-1.7-0.4
		c-0.5-0.2-1-0.6-1.4-1c-0.2-0.3-0.4-0.6-0.5-1c-0.1-0.4-0.2-0.8-0.2-1.2c0-0.6,0.2-1.2,0.5-1.8c0.3-0.5,0.8-1,1.3-1.3
		c0.6-0.3,1.2-0.5,1.8-0.5c0.4,0,0.8,0.1,1.2,0.2c0.6,0.2,1.2,0.7,1.5,1.3V621L377,620.9L377,620.9L377,620.9z M373.5,621.7
		c-0.5,0-1,0.1-1.5,0.3c-0.4,0.2-0.8,0.6-1,1c-0.2,0.4-0.4,0.9-0.4,1.4c0,0.5,0.1,0.9,0.4,1.3c0.2,0.4,0.6,0.8,1,1
		c0.4,0.2,0.9,0.4,1.4,0.4c0.5,0,0.9-0.1,1.3-0.4c0.4-0.2,0.8-0.6,1-1c0.2-0.4,0.4-0.9,0.4-1.3c0-1-0.5-1.8-1.3-2.3
		C374.3,621.8,373.9,621.6,373.5,621.7L373.5,621.7L373.5,621.7z"/><path class="st5" d="M378.6,620.9h0.9v1.2c0.1-0.2,0.3-0.4,0.5-0.6c0.6-0.5,1.4-0.8,2.2-0.8c0.5,0,1,0.1,1.5,0.3
		c0.5,0.2,0.9,0.6,1.3,1c0.6,0.6,0.8,1.4,0.8,2.3c0,0.6-0.2,1.3-0.5,1.8c-0.3,0.5-0.8,1-1.3,1.3c-0.6,0.3-1.2,0.5-1.8,0.5
		c-0.8,0-1.6-0.2-2.1-0.8c-0.2-0.2-0.4-0.4-0.5-0.7v3.7h-0.9L378.6,620.9L378.6,620.9z M382.2,627.1c0.4,0,0.8-0.1,1.1-0.2
		c0.3-0.1,0.6-0.3,0.9-0.6c0.2-0.2,0.4-0.5,0.6-0.8c0.6-1.4-0.1-3-1.5-3.6c-0.3-0.1-0.7-0.2-1.1-0.2l0,0c-0.5,0-1,0.1-1.4,0.3
		c-0.4,0.2-0.8,0.6-1,1c-0.7,1.3-0.3,2.9,1,3.7C381.2,627,381.7,627.1,382.2,627.1L382.2,627.1L382.2,627.1z"/><path class="st5" d="M387.2,620.9h0.8v1.2c0.1-0.2,0.3-0.4,0.5-0.6c0.6-0.5,1.4-0.8,2.2-0.8c0.5,0,1,0.1,1.5,0.3
		c0.5,0.2,0.9,0.6,1.3,1c0.6,0.6,0.8,1.4,0.8,2.3c0,0.6-0.2,1.3-0.5,1.8c-0.3,0.5-0.8,1-1.3,1.3c-0.6,0.3-1.2,0.5-1.9,0.5
		c-0.8,0-1.6-0.2-2.1-0.8c-0.2-0.2-0.4-0.4-0.5-0.7v3.7h-0.9L387.2,620.9L387.2,620.9L387.2,620.9z M390.7,627.1
		c0.4,0,0.8-0.1,1.1-0.2c0.3-0.1,0.6-0.3,0.9-0.6c0.2-0.2,0.4-0.5,0.6-0.8c0.6-1.4-0.1-3-1.5-3.6c-0.3-0.1-0.7-0.2-1-0.2
		c-0.5,0-1,0.1-1.4,0.3c-0.4,0.2-0.8,0.6-1,1c-0.7,1.3-0.3,2.9,1,3.7C389.8,627,390.2,627.1,390.7,627.1L390.7,627.1L390.7,627.1z"
/><rect x="395.7" y="618.5" class="st5" width="0.9" height="9.3"/><path class="st5" d="M398.2,627.8v-6.9h0.9v6.9H398.2z M398.2,620.1v-1.6h0.9v1.6H398.2z"/><path class="st5" d="M406.5,625.8h1c-0.1,0.2-0.3,0.5-0.4,0.7c-0.1,0.2-0.3,0.3-0.4,0.5c-0.7,0.7-1.6,1-2.5,1
		c-0.7,0-1.3-0.2-1.9-0.5c-1.7-0.9-2.4-3.1-1.4-4.8c0,0,0-0.1,0.1-0.1c0.3-0.5,0.8-1,1.4-1.3c0.6-0.3,1.2-0.5,1.9-0.5
		c1,0,2,0.4,2.7,1.1c0.3,0.3,0.5,0.7,0.7,1.1h-1c-0.2-0.3-0.4-0.5-0.6-0.7c-0.5-0.4-1.1-0.7-1.8-0.7c-0.5,0-1,0.1-1.4,0.4
		c-0.4,0.2-0.8,0.6-1,1c-0.2,0.4-0.4,0.9-0.4,1.3c0,0.5,0.1,1,0.4,1.4c0.2,0.4,0.6,0.8,1,1c0.4,0.2,0.9,0.4,1.4,0.4
		c0.4,0,0.9-0.1,1.3-0.3c0.2-0.1,0.4-0.2,0.5-0.4C406.2,626.3,406.4,626.1,406.5,625.8L406.5,625.8L406.5,625.8z"/><path class="st5" d="M415.9,620.9v6.9H415v-1.3c-0.2,0.3-0.3,0.5-0.6,0.7c-0.6,0.5-1.3,0.8-2.1,0.7c-0.6,0-1.2-0.1-1.7-0.4
		c-0.5-0.2-1-0.6-1.4-1c-0.2-0.3-0.4-0.6-0.5-1c-0.1-0.4-0.2-0.8-0.2-1.2c0-0.6,0.2-1.2,0.5-1.8c0.3-0.5,0.8-1,1.3-1.3
		c0.6-0.3,1.2-0.5,1.8-0.5c0.4,0,0.8,0.1,1.2,0.2c0.6,0.2,1.2,0.7,1.5,1.3V621L415.9,620.9L415.9,620.9L415.9,620.9z M412.3,621.7
		c-0.5,0-1,0.1-1.4,0.4c-0.9,0.5-1.4,1.4-1.4,2.4c0,0.5,0.1,0.9,0.4,1.3c0.2,0.4,0.6,0.8,1,1c0.4,0.2,0.9,0.4,1.4,0.4
		c0.5,0,0.9-0.1,1.3-0.4c0.4-0.2,0.8-0.6,1-1c0.2-0.4,0.4-0.9,0.4-1.3c0-1-0.5-1.8-1.3-2.3C413.2,621.8,412.8,621.7,412.3,621.7
		L412.3,621.7z"/><path class="st5" d="M418.2,627.8v-6h-1.4v-0.8h1.4v-2.4h0.9v2.4h1.6v0.8h-1.6v6H418.2z"/><path class="st5" d="M421.7,627.8v-6.9h0.9v6.9H421.7z M421.7,620.1v-1.6h0.9v1.6H421.7z"/><path class="st5" d="M427.5,620.8c0.6,0,1.3,0.2,1.8,0.5c0.5,0.3,1,0.8,1.3,1.3c0.3,0.5,0.5,1.2,0.5,1.8c0,0.6-0.2,1.3-0.5,1.8
		c-0.3,0.5-0.8,1-1.3,1.3c-0.5,0.3-1.2,0.5-1.8,0.5c-0.6,0-1.2-0.2-1.8-0.5c-0.5-0.3-1-0.8-1.3-1.3c-0.3-0.5-0.5-1.2-0.5-1.8
		c0-0.6,0.2-1.3,0.5-1.8c0.3-0.5,0.8-1,1.3-1.3C426.2,620.9,426.8,620.8,427.5,620.8L427.5,620.8z M427.5,621.7
		c-0.5,0-1,0.1-1.4,0.4c-0.4,0.2-0.8,0.6-1,1c-0.2,0.4-0.4,0.9-0.4,1.4c0,1.5,1.2,2.7,2.7,2.7c0,0,0,0,0,0c0.5,0,0.9-0.1,1.3-0.4
		c0.4-0.2,0.8-0.6,1-1c0.2-0.4,0.4-0.9,0.4-1.4c0-0.5-0.1-0.9-0.4-1.3c-0.2-0.4-0.6-0.8-1-1C428.4,621.8,428,621.6,427.5,621.7
		L427.5,621.7L427.5,621.7z"/><path class="st5" d="M432.4,627.8v-6.9h0.9v1.1c0.1-0.2,0.3-0.4,0.5-0.6c0.5-0.4,1.2-0.6,1.8-0.6c0.9,0,1.7,0.3,2.3,1
		c0.2,0.3,0.4,0.6,0.5,0.9c0.1,0.5,0.2,1,0.2,1.5v3.6h-0.9v-3.6c0-0.3,0-0.6-0.1-0.9c-0.1-0.5-0.3-0.9-0.7-1.2
		c-0.4-0.3-0.9-0.4-1.3-0.4c-0.3,0-0.7,0.1-1,0.2c-0.3,0.1-0.6,0.3-0.8,0.6c-0.1,0.2-0.2,0.4-0.3,0.6c-0.1,0.3-0.1,0.7-0.1,1v3.6
		L432.4,627.8L432.4,627.8L432.4,627.8z"/><path class="st5" d="M309.1,642.1l-2.6-6.9h1l2.1,5.8l1.6-4.9h0.7l1.6,4.9l2.2-5.8h1l-2.6,6.9h-1.1l-1.5-4.6l-1.4,4.6H309.1
		L309.1,642.1z"/><path class="st5" d="M317.6,642.1v-6.9h0.9v1c0.1-0.2,0.2-0.4,0.4-0.5c0.2-0.2,0.4-0.3,0.6-0.4c0.3-0.1,0.7-0.2,1-0.2v0.9
		c-0.3,0-0.7,0.1-1,0.3c-0.3,0.2-0.6,0.5-0.8,0.9c-0.1,0.4-0.2,0.7-0.2,1.1v3.8L317.6,642.1L317.6,642.1z"/><path class="st5" d="M321.4,642.1v-6.9h0.9v6.9H321.4z M321.4,634.4v-1.6h0.9v1.6H321.4z"/><path class="st5" d="M324.7,642.1v-6h-1.4v-0.8h1.4v-2.4h0.9v2.4h1.6v0.8h-1.6v6H324.7z"/><path class="st5" d="M329,642.1v-6h-1.4v-0.8h1.4v-2.4h0.9v2.4h1.6v0.8h-1.6v6H329z"/><path class="st5" d="M339.3,638.9h-6.2c0,0.3,0.1,0.6,0.2,0.9c0.1,0.3,0.3,0.6,0.6,0.8c0.3,0.2,0.5,0.4,0.9,0.5
		c1.3,0.6,2.8,0,3.5-1.3h1c-0.1,0.3-0.3,0.6-0.5,0.9c-0.2,0.2-0.4,0.4-0.6,0.6c-0.3,0.3-0.7,0.5-1.2,0.7c-0.4,0.2-0.8,0.2-1.3,0.2
		l0,0c-2,0-3.5-1.6-3.5-3.5l0,0c0-1.3,0.7-2.5,1.8-3.1c0.5-0.3,1.2-0.5,1.8-0.5c1.1,0,2.1,0.5,2.8,1.3c0.3,0.4,0.6,0.9,0.7,1.4
		C339.2,638.2,339.3,638.6,339.3,638.9L339.3,638.9L339.3,638.9z M333.1,638.1h5.2c-0.1-0.4-0.2-0.8-0.5-1.1
		c-0.3-0.3-0.6-0.6-0.9-0.8c-0.4-0.2-0.8-0.3-1.2-0.3c-0.4,0-0.8,0.1-1.2,0.3c-0.4,0.2-0.7,0.4-0.9,0.8
		C333.4,637.3,333.2,637.7,333.1,638.1L333.1,638.1z"/><path class="st5" d="M340.6,642.1v-6.9h0.9v1.1c0.1-0.2,0.3-0.4,0.5-0.6c1.3-1,3.2-0.7,4.2,0.6c0.1,0.2,0.3,0.4,0.3,0.6
		c0.1,0.5,0.2,1,0.2,1.5v3.6h-0.9v-3.6c0-0.3,0-0.6-0.1-0.9c-0.1-0.5-0.3-0.9-0.7-1.2c-0.4-0.3-0.9-0.4-1.3-0.4
		c-0.3,0-0.7,0.1-1,0.2c-0.3,0.1-0.6,0.3-0.8,0.6c-0.1,0.2-0.2,0.4-0.3,0.6c-0.1,0.3-0.1,0.7-0.1,1v3.6L340.6,642.1L340.6,642.1
		L340.6,642.1z"/><path class="st5" d="M353.6,642.1l-2.6-6.9h1l2.1,5.8l1.6-4.9h0.8l1.6,4.9l2.2-5.8h1l-2.6,6.9h-1.1l-1.5-4.6l-1.4,4.6H353.6z"/><path class="st5" d="M362.1,642.1v-6.9h0.9v6.9H362.1z M362.1,634.4v-1.6h0.9v1.6H362.1z"/><path class="st5" d="M365.4,642.1v-6H364v-0.8h1.4v-2.4h0.9v2.4h1.6v0.8h-1.6v6H365.4L365.4,642.1z"/><path class="st5" d="M368.9,642.1v-9.3h0.9v3.4c0.2-0.4,0.5-0.7,0.9-0.9c0.4-0.2,0.9-0.3,1.4-0.3c1.2-0.1,2.4,0.7,2.7,1.8
		c0.1,0.5,0.2,1,0.2,1.5v3.6h-1v-3.6c0-0.3,0-0.6-0.1-0.9c-0.1-0.5-0.3-0.9-0.7-1.2c-0.4-0.3-0.8-0.4-1.3-0.4c-0.3,0-0.7,0.1-1,0.2
		c-0.3,0.1-0.6,0.3-0.8,0.6c-0.1,0.2-0.2,0.4-0.3,0.6c-0.1,0.3-0.1,0.7-0.1,1v3.6L368.9,642.1L368.9,642.1z"/><path class="st6" d="M380.5,642.1v-6h-1.1v-0.8h1.1c0-0.3,0.1-0.7,0.2-1c0.1-0.3,0.3-0.5,0.5-0.7c0.2-0.2,0.5-0.4,0.8-0.5
		c0.3-0.1,0.7-0.2,1-0.2h0.2v0.8h-0.2c-1,0-1.5,0.5-1.5,1.4v0.1h1.7v0.8h-1.7v6L380.5,642.1L380.5,642.1L380.5,642.1z"/><rect x="384" y="632.8" class="st6" width="0.9" height="9.3"/><path class="st6" d="M392.5,635.2v6.9h-0.9V641c-0.1,0.2-0.3,0.4-0.5,0.6c-0.5,0.4-1.2,0.6-1.8,0.6c-0.9,0-1.7-0.3-2.3-1
		c-0.2-0.3-0.4-0.6-0.5-0.9c-0.1-0.5-0.2-1-0.2-1.6v-3.6h0.9v3.6c0,0.3,0,0.6,0.1,0.9c0,0.3,0.2,0.6,0.4,0.8
		c0.2,0.2,0.4,0.4,0.7,0.5c0.3,0.1,0.7,0.2,1,0.2c0.3,0,0.7-0.1,1-0.2c0.3-0.1,0.6-0.4,0.8-0.6c0.1-0.2,0.2-0.4,0.3-0.6
		c0.1-0.3,0.1-0.7,0.1-1v-3.6L392.5,635.2L392.5,635.2z"/><path class="st6" d="M394.9,642.1v-6h-1.4v-0.8h1.4v-2.4h0.9v2.4h1.6v0.8h-1.6v6H394.9z"/><path class="st6" d="M399.1,642.1v-6h-1.4v-0.8h1.4v-2.4h0.9v2.4h1.6v0.8h-1.6v6H399.1z"/><path class="st6" d="M409.5,638.9h-6.2c0,0.3,0.1,0.6,0.2,0.9c0.1,0.3,0.3,0.6,0.6,0.8c1.1,1,2.7,1,3.8,0c0.2-0.2,0.4-0.5,0.5-0.7
		h1c-0.1,0.3-0.3,0.6-0.5,0.9c-0.2,0.2-0.4,0.4-0.6,0.6c-0.3,0.3-0.7,0.5-1.1,0.7c-0.4,0.2-0.8,0.2-1.3,0.2c-2,0-3.6-1.6-3.6-3.6
		c0-1.3,0.7-2.4,1.8-3.1c0.5-0.3,1.2-0.5,1.8-0.5c1.1,0,2.1,0.5,2.8,1.3c0.3,0.4,0.6,0.9,0.7,1.4
		C409.4,638.2,409.5,638.6,409.5,638.9L409.5,638.9L409.5,638.9z M403.3,638.1h5.2c-0.1-0.4-0.2-0.8-0.5-1.1
		c-0.3-0.3-0.6-0.6-0.9-0.8c-0.4-0.2-0.8-0.3-1.2-0.3c-0.4,0-0.8,0.1-1.2,0.3c-0.4,0.2-0.7,0.4-0.9,0.8
		C403.5,637.3,403.3,637.7,403.3,638.1L403.3,638.1L403.3,638.1z"/><path class="st6" d="M410.7,642.1v-6.9h0.9v1c0.1-0.2,0.2-0.4,0.4-0.5c0.2-0.2,0.4-0.3,0.6-0.4c0.3-0.1,0.7-0.2,1-0.2v0.9
		c-0.3,0-0.7,0.1-1,0.3c-0.3,0.2-0.6,0.5-0.8,0.9c-0.1,0.4-0.2,0.7-0.2,1.1v3.8L410.7,642.1L410.7,642.1z"/></g></svg>
