<?xml version="1.0" encoding="UTF-8" standalone="no"?><!DOCTYPE svg PUBLIC "-//W3C//DTD SVG 1.1//EN" "http://www.w3.org/Graphics/SVG/1.1/DTD/svg11.dtd"><svg width="100%" height="100%" viewBox="0 0 170 49" version="1.1" xmlns="http://www.w3.org/2000/svg" xmlns:xlink="http://www.w3.org/1999/xlink" xml:space="preserve" xmlns:serif="http://www.serif.com/" style="fill-rule:evenodd;clip-rule:evenodd;stroke-linejoin:round;stroke-miterlimit:2;"><g id="download"><rect id="area" x="0" y="0" width="170" height="49" style="fill-opacity:0;"/><g id="downloadText"><g transform="matrix(1,0,0,1,-175.492,-817.11)"><text x="218.172px" y="838.917px" style="font-family:'AvantiBNormal', 'AvantiB', sans-serif;font-size:10px;fill:#ffbc15;">download</text><text x="268.33px" y="838.917px" style="font-family:'AvantiBNormal', 'AvantiB', sans-serif;font-size:10px;fill:#fff;">android app</text></g><text x="42.68px" y="34.181px" style="font-family:'AvantiBNormal', 'AvantiB', sans-serif;font-size:10px;fill:#fff;">for better user experience</text></g><path id="androidlogo" d="M23.8,15.1l0,-1.4l-1.3,0l0,1.4l1.3,0Zm-6.7,0l0,-1.4l-1.3,0l0,1.4l1.3,0Zm7.4,-3.8c1,0.7 1.8,1.7 2.4,2.8c0.6,1.1 0.9,2.4 0.9,3.6l-16,0c0,-1.3 0.3,-2.5 0.9,-3.7c0.6,-1.1 1.4,-2.1 2.4,-2.8l-1.8,-1.8c-0.2,-0.3 -0.2,-0.7 0.1,-0.9c0.2,-0.2 0.6,-0.2 0.9,0l2,2c2.2,-1.1 4.8,-1.1 7,0l2,-2c0.3,-0.2 0.7,-0.2 0.9,0.1c0.2,0.2 0.2,0.6 0,0.9l-1.7,1.8Zm6.6,7.8c1.1,0 2,0.9 2,2l0,9.3c0,0.5 -0.2,1.1 -0.6,1.4c-0.4,0.4 -0.9,0.6 -1.4,0.6c-0.5,0 -1,-0.2 -1.4,-0.6c-0.4,-0.4 -0.6,-0.9 -0.6,-1.4l0,-9.3c0,-0.5 0.2,-1 0.6,-1.4c0.4,-0.4 0.9,-0.6 1.4,-0.6Zm-22.6,0c1.1,0 2,0.9 2,2l0,9.3c0,0.5 -0.2,1.1 -0.6,1.4c-0.4,0.4 -0.9,0.6 -1.4,0.6c-0.5,0 -1,-0.2 -1.4,-0.6c-0.4,-0.4 -0.6,-0.9 -0.6,-1.4l0,-9.3c0,-0.5 0.2,-1 0.6,-1.4c0.3,-0.4 0.9,-0.6 1.4,-0.6Zm3.3,13.3l0,-13.3l16,0l0,13.3c0,0.7 -0.6,1.3 -1.3,1.3l-1.4,0l0,4.7c0,1.1 -0.9,2 -2,2c-0.5,0 -1,-0.2 -1.4,-0.6c-0.4,-0.4 -0.6,-0.9 -0.6,-1.4l0,-4.7l-2.6,0l0,4.7c0,1.1 -0.9,2 -2,2c-0.5,0 -1,-0.2 -1.4,-0.6c-0.4,-0.4 -0.6,-0.9 -0.6,-1.4l0,-4.7l-1.4,0c-0.8,0 -1.4,-0.6 -1.3,-1.3Z" style="fill:#fff;fill-rule:nonzero;"/></g></svg>