<?xml version="1.0" encoding="UTF-8" standalone="no"?><!DOCTYPE svg PUBLIC "-//W3C//DTD SVG 1.1//EN"
    "http://www.w3.org/Graphics/SVG/1.1/DTD/svg11.dtd">
<svg xmlns:serif="http://www.serif.com/" xmlns:xlink="http://www.w3.org/1999/xlink" style="fill-rule:evenodd;clip-rule:evenodd;stroke-linejoin:round;stroke-miterlimit:1.41421;" height="100%"
    version="1.1" viewBox="0 0 546 1010"
    width="100%" xmlns="http://www.w3.org/2000/svg"
    xml:space="preserve"><clipPath id="_clip1"><rect height="1010" width="545.062" x="0" y="0"/></clipPath>
    <defs><radialGradient cx="0" cy="0" gradientTransform="matrix(556.469,480,-480,556.469,272.531,505)" gradientUnits="userSpaceOnUse" id="_Radial2" r="1"><stop style="stop-color:#215b5f;stop-opacity:1" offset="0"/><stop
        style="stop-color:#003740;stop-opacity:1" offset="1" /></radialGradient></defs>
    <g clip-path="url(#_clip1)"><g id="Layer1"><rect style="fill:url(#_Radial2);stroke:#3aa6ff;stroke-width:1px;" height="1010" width="545.062" x="0" y="0"/></g>
        <g id="logo"><g><path style="fill:#a1babc;fill-rule:nonzero;" d="M358.62,501.872l-0.07,4.541l-1.915,-0.029l0.066,-4.293c0.002,-0.144 -0.002,-0.285 -0.015,-0.414c-0.012,-0.136 -0.037,-0.271 -0.082,-0.427c-0.043,-0.149 -0.149,-0.261 -0.319,-0.339c-0.17,-0.068 -0.44,-0.115 -0.8,-0.12l-1.523,-0.022l-0.085,5.572l-1.876,-0.029l0.11,-7.162l3.547,0.054c0.662,0.01 1.209,0.097 1.64,0.256c0.434,0.161 0.763,0.436 0.994,0.825c0.231,0.389 0.339,0.918 0.328,1.587"/><path
            style="fill:#a1babc;fill-rule:nonzero;"
            d="M351.801,518.536l-0.023,1.427l-1.727,-0.027c-0.714,-0.01 -1.254,-0.218 -1.62,-0.623c-0.368,-0.406 -0.542,-0.948 -0.531,-1.637l0.052,-3.509l-1.318,-0.021l0.022,-1.429l1.319,0.021l0.039,-2.606l1.889,0.029l-0.04,2.606l2.025,0.031l-0.022,1.429l-2.024,-0.031l-0.047,2.894c-0.005,0.429 0.06,0.745 0.198,0.957c0.137,0.211 0.327,0.346 0.572,0.401c0.288,0.054 0.637,0.079 1.047,0.086l0.189,0.002Z" /><path
            style="fill:#a1babc;fill-rule:nonzero;"
            d="M348.546,504.78l0.064,-4.145l-0.22,-0.022l-0.233,-0.004l-0.543,-0.008c-0.439,-0.007 -0.819,0.035 -1.152,0.109c-0.325,0.079 -0.57,0.205 -0.727,0.389c-0.158,0.183 -0.273,0.364 -0.341,0.554c-0.072,0.186 -0.11,0.393 -0.114,0.631l-0.005,0.422c-0.012,0.799 0.223,1.381 0.705,1.734c0.164,0.132 0.347,0.213 0.561,0.253c0.215,0.037 0.478,0.063 0.796,0.069l0.231,0.003l0.978,0.015Zm2.001,-5.654l-0.107,6.893c-0.008,0.616 -0.106,1.135 -0.299,1.555c-0.192,0.416 -0.492,0.731 -0.892,0.954c-0.42,0.204 -0.942,0.298 -1.569,0.289l-3.709,-0.057l0.024,-1.458l3.37,0.051c0.76,0.012 1.148,-0.348 1.158,-1.093l-1.535,-0.025l-0.18,-0.001c-0.379,-0.006 -0.689,-0.025 -0.928,-0.051c-0.241,-0.037 -0.496,-0.115 -0.779,-0.231c-0.279,-0.12 -0.57,-0.336 -0.867,-0.628c-0.301,-0.294 -0.534,-0.677 -0.704,-1.156c-0.168,-0.466 -0.25,-0.985 -0.24,-1.547c0.017,-1.163 0.269,-1.963 0.744,-2.416c0.478,-0.443 0.861,-0.723 1.157,-0.851c0.291,-0.116 0.58,-0.197 0.87,-0.228c0.29,-0.032 0.513,-0.049 0.667,-0.049c0.155,-0.004 0.277,-0.005 0.369,-0.004l3.45,0.053Z" /><path
            style="fill:#a1babc;"
            d="M343.654,519.839l0.11,-7.166l1.955,0.03l-0.11,7.166l-1.955,-0.03Z" /><path
            style="fill:#a1babc;"
            d="M343.776,511.853l0.028,-1.786l1.955,0.031l-0.028,1.785l-1.955,-0.03Z" /><path
            style="fill:#a1babc;fill-rule:nonzero;"
            d="M342.114,515.274l-0.07,4.54l-1.913,-0.029l0.066,-4.292c0.003,-0.144 -0.004,-0.292 -0.013,-0.414c-0.016,-0.136 -0.041,-0.277 -0.083,-0.427c-0.046,-0.149 -0.152,-0.261 -0.322,-0.339c-0.17,-0.074 -0.438,-0.115 -0.8,-0.12l-1.522,-0.023l-0.085,5.573l-1.875,-0.029l0.109,-7.165l3.547,0.054c0.66,0.009 1.207,0.1 1.638,0.258c0.434,0.161 0.765,0.437 0.996,0.826c0.233,0.389 0.337,0.912 0.327,1.587" /><path
            style="fill:#a1babc;"
            d="M340.11,506.132l0.109,-7.164l1.955,0.03l-0.109,7.163l-1.955,-0.029Z" /><path
            style="fill:#a1babc;"
            d="M340.231,498.144l0.028,-1.784l1.954,0.03l-0.028,1.784l-1.954,-0.03Z" /><path
            style="fill:#a1babc;fill-rule:nonzero;"
            d="M338.786,503.747c-0.006,0.405 -0.07,0.748 -0.193,1.027c-0.122,0.285 -0.238,0.495 -0.349,0.625c-0.11,0.145 -0.281,0.292 -0.509,0.451c-0.228,0.162 -0.55,0.236 -0.954,0.231l-4.853,-0.075l0.022,-1.479l3.982,0.06c0.672,0.011 1.011,-0.227 1.017,-0.704c0.007,-0.462 -0.324,-0.697 -0.995,-0.708l-1.645,-0.025c-0.235,-0.004 -0.421,-0.012 -0.558,-0.022c-0.136,-0.013 -0.328,-0.04 -0.583,-0.086c-0.252,-0.046 -0.481,-0.137 -0.689,-0.283c-0.203,-0.144 -0.361,-0.355 -0.464,-0.632c-0.106,-0.279 -0.153,-0.613 -0.148,-1.004c0.024,-1.519 0.877,-2.268 2.564,-2.243l4.046,0.062l-0.022,1.482l-3.361,-0.051l-0.139,-0.002l-0.174,-0.002c-0.575,-0.01 -0.898,0.143 -0.967,0.461l-0.004,0.229c-0.006,0.404 0.292,0.602 0.888,0.611l1.728,0.026c0.343,0.005 0.658,0.046 0.944,0.129c0.283,0.087 0.534,0.213 0.747,0.381c0.214,0.172 0.383,0.388 0.5,0.646c0.12,0.261 0.174,0.555 0.169,0.895" /><path
            style="fill:#a1babc;"
            d="M331.883,519.659l0.109,-7.166l1.956,0.03l-0.11,7.166l-1.955,-0.03Z" /><path
            style="fill:#a1babc;"
            d="M332.005,511.673l0.027,-1.785l1.955,0.03l-0.027,1.785l-1.955,-0.03Z" /><path
            style="fill:#a1babc;fill-rule:nonzero;"
            d="M331.052,512.48l-0.022,1.429l-1.82,-0.028l-0.088,5.736l-1.956,-0.029l0.087,-5.737l-1.342,-0.021l0.021,-1.43l1.342,0.022l0.006,-0.403c0.003,-0.185 0.006,-0.34 0.008,-0.476c0.002,-0.139 0.021,-0.325 0.056,-0.561c0.034,-0.228 0.118,-0.44 0.246,-0.621c0.132,-0.178 0.334,-0.307 0.605,-0.385c0.274,-0.094 0.637,-0.136 1.09,-0.129l1.807,0.027l-0.021,1.41l-0.296,-0.041l-0.492,-0.008c-0.382,-0.005 -0.639,0.046 -0.776,0.166c-0.173,0.087 -0.264,0.288 -0.268,0.62l-0.002,0.093l-0.002,0.112l-0.004,0.226l1.821,0.028Z" /><path
            style="fill:#a1babc;fill-rule:nonzero;"
            d="M330.836,504.51l-0.023,1.48l-2.759,-0.043c-1.223,-0.019 -2.128,-0.359 -2.712,-1.023c-0.583,-0.657 -0.865,-1.534 -0.849,-2.619c0.017,-1.089 0.26,-1.885 0.732,-2.389c0.469,-0.506 0.939,-0.825 1.408,-0.947c0.469,-0.134 0.979,-0.193 1.53,-0.185l2.76,0.042l-0.023,1.483l-2.501,-0.038c-0.407,-0.006 -0.729,0.017 -0.966,0.078c-0.241,0.062 -0.424,0.191 -0.563,0.391c-0.17,0.202 -0.256,0.492 -0.261,0.863l4.27,0.066l-0.022,1.506l-4.272,-0.064c-0.005,0.372 0.058,0.656 0.188,0.853c0.13,0.199 0.312,0.336 0.56,0.412c0.232,0.052 0.564,0.089 0.989,0.095l2.514,0.039Z" /><path
            style="fill:#a1babc;fill-rule:nonzero;"
            d="M325.006,515.013l-0.07,4.54l-1.918,-0.029l0.065,-4.293c0.002,-0.143 -0.002,-0.29 -0.011,-0.414c-0.014,-0.135 -0.039,-0.276 -0.085,-0.427c-0.04,-0.149 -0.149,-0.261 -0.318,-0.338c-0.174,-0.074 -0.44,-0.114 -0.802,-0.12l-1.521,-0.023l-0.086,5.573l-1.876,-0.029l0.11,-7.165l3.545,0.054c0.664,0.01 1.211,0.1 1.641,0.258c0.434,0.161 0.765,0.436 0.995,0.825c0.231,0.391 0.342,0.913 0.331,1.588" /><path
            style="fill:#a1babc;fill-rule:nonzero;"
            d="M321.47,500.965c0.008,-0.538 -0.025,-1.042 -0.095,-1.493c-0.073,-0.457 -0.219,-0.82 -0.454,-1.097c-0.23,-0.273 -0.449,-0.44 -0.651,-0.49c-0.202,-0.054 -0.396,-0.094 -0.576,-0.111c-0.178,-0.022 -0.371,-0.033 -0.57,-0.037l-2.378,-0.037l-0.096,6.376l2.375,0.037c0.418,0.006 0.759,-0.017 1.021,-0.078c0.266,-0.051 0.51,-0.198 0.741,-0.427c0.278,-0.303 0.455,-0.683 0.542,-1.126c0.084,-0.452 0.131,-0.954 0.141,-1.517m2.233,-0.368l-0.009,0.598c-0.025,1.714 -0.4,2.856 -1.121,3.441c-0.724,0.58 -1.326,0.923 -1.799,1.028c-0.479,0.109 -1.045,0.156 -1.705,0.145l-4.496,-0.067l0.148,-9.771l4.457,0.068c1.013,0.015 1.839,0.189 2.48,0.518c0.638,0.337 1.092,0.76 1.353,1.277c0.262,0.522 0.447,0.988 0.55,1.404c0.101,0.417 0.15,0.868 0.142,1.359" /><path
            style="fill:#a1babc;"
            d="M314.365,519.392l0.149,-9.771l2.143,0.033l-0.149,9.771l-2.143,-0.033Z" /></g>
            <g><path style="fill:#fff;fill-rule:nonzero;" d="M309.386,511.493c-0.01,0.61 -0.069,1.178 -0.17,1.691c-0.103,0.517 -0.301,1.118 -0.599,1.812c-0.295,0.688 -0.791,1.297 -1.486,1.815c-0.691,0.51 -1.515,0.871 -2.464,1.065c-0.87,0.22 -1.992,0.318 -3.362,0.298l-12.72,-0.195l0.062,-4.079l11.961,0.183c1.181,0.019 2.096,-0.146 2.746,-0.485c0.649,-0.339 0.98,-0.989 0.996,-1.956l0.007,-0.481c-0.055,-0.657 -0.214,-1.129 -0.486,-1.432c-0.352,-0.321 -0.759,-0.541 -1.212,-0.653c-0.449,-0.112 -0.995,-0.171 -1.632,-0.182l-5.64,-0.085c-2.431,-0.037 -4.299,-0.573 -5.607,-1.602c-1.299,-1.039 -1.936,-2.744 -1.899,-5.129c0.018,-1.195 0.234,-2.272 0.648,-3.215c0.414,-0.944 0.975,-1.665 1.68,-2.178c0.703,-0.504 1.511,-0.854 2.422,-1.055c0.825,-0.214 1.935,-0.316 3.325,-0.295l12.562,0.193l-0.063,4.081l-11.802,-0.18c-2.486,-0.037 -3.745,0.933 -3.774,2.914c-0.014,0.847 0.261,1.461 0.824,1.853c0.539,0.428 1.266,0.647 2.175,0.66l6.294,0.096c1.223,0.019 2.308,0.123 3.256,0.306c0.861,0.205 1.748,0.731 2.65,1.577c0.904,0.846 1.342,2.399 1.308,4.658"/>
                <path
                    style="fill:#fff;fill-rule:nonzero;"
                    d="M284.786,513.965l-0.059,3.955l-8.039,-0.122c-1.515,-0.023 -2.807,-0.178 -3.869,-0.454c-1.063,-0.282 -2.123,-0.828 -3.19,-1.649c-1.268,-1.119 -2.16,-2.45 -2.673,-3.992c-0.517,-1.553 -0.762,-3.222 -0.734,-5.019l0.084,-1.359c0.013,-0.821 0.109,-1.622 0.287,-2.401c0.185,-0.774 0.408,-1.513 0.671,-2.204c0.263,-0.688 0.569,-1.3 0.914,-1.818c0.345,-0.527 0.848,-1.105 1.516,-1.75c0.662,-0.643 1.457,-1.115 2.393,-1.408c0.933,-0.29 1.805,-0.483 2.619,-0.573c0.814,-0.095 1.633,-0.135 2.456,-0.123l7.912,0.122l-0.061,3.955l-7.848,-0.12c-1.706,-0.027 -3.04,0.402 -3.994,1.284c-0.95,0.883 -1.437,2.197 -1.464,3.948l13.224,0.202l-0.059,3.952l-13.225,-0.201c-0.029,1.905 0.294,3.244 0.979,4.022c0.683,0.779 1.329,1.244 1.924,1.389c0.602,0.149 1.394,0.229 2.388,0.244l7.848,0.12Z" />
                <path
                    style="fill:#fff;fill-rule:nonzero;"
                    d="M266.848,494.891l-8.898,12.621l-0.152,9.998l-4.842,-0.074l0.151,-9.998l-8.379,-12.884l5.314,0.08l5.502,8.816l5.796,-8.643l5.508,0.084Z" /></g>
            <path
                style="fill:#a1babc;fill-rule:nonzero;"
                d="M234.971,489.739c0.747,0.672 2.706,2.784 2.083,6.475c-0.627,3.687 -1.855,19.141 -13.606,26.551c-10.493,6.602 -22.804,4.344 -27.724,-0.186c5.337,2.143 12.468,2.503 18.64,-2.58c7.346,-6.052 9.067,-16.17 12.003,-22.673c1.053,-2.339 2.175,-5.554 3.878,-5.096c1.719,0.459 -3.223,-1.712 -4.876,-1.977c-1.654,-0.273 -6.015,-0.218 -7.462,1.968c-1.444,2.19 -4.373,9.209 -4.574,9.94c-0.193,0.735 -0.758,1.581 -1.557,1.569l-5.952,-0.091c-0.985,-0.014 -0.906,-1.24 -0.707,-2.096c0.194,-0.851 1.788,-9.945 5.125,-11.042c4.523,-1.495 -1.172,-1.507 -1.64,-1.526c-4.715,-0.088 -7.424,2.583 -8.747,5.084c-1.331,2.498 -2.507,5.835 -3.342,8.029c-0.834,2.199 -0.665,7.422 3.752,7.488c4.419,0.068 10.069,0.154 10.069,0.154c0,0 -0.353,10.06 -10.423,9.907c-3.443,-0.052 -6.425,-1.786 -8.66,-3.898c-2.009,-1.955 -12.897,-18.619 6.788,-28.655c19.686,-10.03 36.184,1.982 36.932,2.655" /></g>
        <g id="pageControls"></g></g>
    <rect style="fill:#fff;" height="1010" id="smallScreen" width="545.062" x="0" y="0"/></svg>